<svg width="84" height="78" viewBox="0 0 84 78" fill="none" xmlns="http://www.w3.org/2000/svg">
<path d="M36.5362 69.2551L41.4908 63.0389L63.7847 35.0672C67.8589 29.916 67.0006 22.4405 61.8648 18.3469C56.7289 14.2534 49.2503 15.0839 45.1374 20.2044L22.8359 48.1758C21.9235 49.3199 22.1118 50.9872 23.2565 51.8996C24.4011 52.8114 26.0678 52.6231 26.9803 51.4791L49.2818 23.5076C51.5619 20.6469 55.7285 20.1764 58.5892 22.4565C61.4499 24.7366 61.9205 28.9033 59.6403 31.764L37.3472 59.742L32.3932 65.9582C28.2866 71.1084 20.7828 71.9541 15.6332 67.848C10.4835 63.7414 9.63734 56.2382 13.7439 51.088L17.8736 45.9088L40.9937 16.9016L42.645 14.8292C48.6222 7.5625 59.3248 6.43754 66.683 12.3019C74.0407 18.1669 75.331 28.8508 69.5803 36.298L44.8082 67.3771C44.2185 68.1176 44.0684 69.1165 44.4144 69.9972C44.7604 70.8786 45.55 71.5084 46.4863 71.6492C47.4226 71.7899 48.3622 71.4203 48.9525 70.6803L73.7241 39.6013C81.442 29.8727 79.8287 15.7326 70.1175 7.99282C60.4068 0.252354 46.2631 1.83327 38.5008 11.5265L13.7292 42.6055L9.60036 47.7916C3.90388 55.2416 5.21428 65.8805 12.5491 71.7246C19.8835 77.5694 30.5463 76.4712 36.5362 69.2551Z" fill="#33475B"/>
</svg>
