<svg xmlns="http://www.w3.org/2000/svg" width="23" height="24.804" viewBox="0 0 23 24.804"><g transform="translate(-126.3 -40.268)"><path d="M2132.493,944.022c2.628,3.832,5.24,7.676,7.9,11.485a1.192,1.192,0,0,1,.009,1.62c-2.554,3.648-5.066,7.325-7.608,10.981-.169.242-.466.553-.711.56-1.75.048-3.5.026-5.424.026.256-.415.409-.686.584-.942q3.661-5.353,7.333-10.7c.3-.438.465-.794.109-1.307q-4.059-5.849-8.078-11.724Z" transform="translate(-2000.309 -903.754)" fill="#fa9028"/><path d="M2205.05,944.022c-.812,1.241-1.609,2.492-2.438,3.721-1.213,1.8-2.448,3.583-3.769,5.51-1.013-1.473-1.99-2.859-2.911-4.28-.094-.144.094-.532.237-.751.92-1.409,1.864-2.8,2.8-4.2Z" transform="translate(-2055.996 -903.754)" fill="#fff"/><path d="M2205.547,1031.694c-2.058,0-3.884.019-5.708-.021a1.154,1.154,0,0,1-.756-.472q-1.4-1.936-2.707-3.929a.962.962,0,0,1-.1-.837c.888-1.388,1.834-2.741,2.809-4.173Z" transform="translate(-2056.246 -966.627)" fill="#fff"/></g></svg>