<?xml version="1.0" encoding="UTF-8" standalone="no"?>
<!DOCTYPE svg PUBLIC "-//W3C//DTD SVG 1.1//EN" "http://www.w3.org/Graphics/SVG/1.1/DTD/svg11.dtd">
<svg version="1.1" xmlns="http://www.w3.org/2000/svg" xmlns:xlink="http://www.w3.org/1999/xlink" preserveAspectRatio="xMidYMid meet" viewBox="0 0 12 12" width="12" height="12"><defs><path d="M10 1.5C10 0.9 10 0.57 10 0.5C10 0.22 9.78 0 9.5 0C9.45 0 9.05 0 9 0C8.72 0 8.5 0.22 8.5 0.5C8.5 0.57 8.5 0.9 8.5 1.5L3.5 1.5C3.5 0.9 3.5 0.57 3.5 0.5C3.5 0.22 3.28 0 3 0C2.95 0 2.55 0 2.5 0C2.22 0 2 0.22 2 0.5C2 0.57 2 0.9 2 1.5C1.7 1.5 1.53 1.5 1.5 1.5C0.67 1.5 0 2.17 0 3C0 3.75 0 9.75 0 10.5C0 11.33 0.67 12 1.5 12C2.4 12 9.6 12 10.5 12C11.33 12 12 11.33 12 10.5C12 9.75 12 3.75 12 3C12 2.17 11.33 1.5 10.5 1.5C10.43 1.5 10.27 1.5 10 1.5ZM10.5 11C9.6 11 2.4 11 1.5 11C1.22 11 1 10.78 1 10.5C1 10.13 1 8.31 1 5.02L11 5.02L11 10.5C10.85 10.83 10.68 11 10.5 11Z" id="dC95izDDI"></path></defs><g><g><g><use xlink:href="#dC95izDDI" opacity="1" fill="#f79824" fill-opacity="1"></use><g><use xlink:href="#dC95izDDI" opacity="1" fill-opacity="0" stroke="#000000" stroke-width="1" stroke-opacity="0"></use></g></g></g></g></svg>