<svg width="27" height="24" viewBox="0 0 27 24" fill="none" xmlns="http://www.w3.org/2000/svg">
<path d="M15.0774 10.8215L5.45472 0.740562C5.1101 0.377268 4.63119 0.171782 4.13045 0.172365H1.83933C1.1064 0.173324 0.444503 0.610821 0.156388 1.28475C-0.131727 1.95868 0.00933897 2.73945 0.515063 3.26996L8.92805 12.0862L0.515063 20.9024C0.00933897 21.4329 -0.131727 22.2137 0.156388 22.8876C0.444503 23.5615 1.1064 23.999 1.83933 24H4.13045C4.63101 23.9997 5.1096 23.7944 5.45472 23.4318L15.0774 13.3509C15.7557 12.6442 15.7557 11.5282 15.0774 10.8215Z" fill="#B6B9B9"/>
<path d="M26.0747 10.8215L16.452 0.740562C16.1074 0.377268 15.6285 0.171782 15.1278 0.172365H12.8366C12.1037 0.173324 11.4418 0.610821 11.1537 1.28475C10.8656 1.95868 11.0067 2.73945 11.5124 3.26996L19.9254 12.0862L11.5124 20.9024C11.0067 21.4329 10.8656 22.2137 11.1537 22.8876C11.4418 23.5615 12.1037 23.999 12.8366 24H15.1278C15.6283 23.9997 16.1069 23.7944 16.452 23.4318L26.0747 13.3509C26.753 12.6442 26.753 11.5282 26.0747 10.8215Z" fill="#B6B9B9"/>
</svg>
