<svg width="35" height="35" viewBox="0 0 35 35" fill="none" xmlns="http://www.w3.org/2000/svg">
<circle cx="17.5" cy="17.5" r="17.5" fill="#BDBFC7"/>
<path d="M17.1333 14.0667C16.7837 14.0667 16.5 14.3504 16.5 14.7C16.5 15.0496 16.7837 15.3333 17.1333 15.3333C18.5305 15.3333 19.6667 16.4695 19.6667 17.8666C19.6667 18.2162 19.9504 18.5 20.3 18.5C20.6496 18.5 20.9333 18.2162 20.9333 17.8666C20.9333 15.7716 19.2284 14.0667 17.1333 14.0667Z" fill="#818288"/>
<path d="M17.1333 11.5334C16.7837 11.5334 16.5 11.8172 16.5 12.1668C16.5 12.5164 16.7837 12.8001 17.1333 12.8001C19.9276 12.8001 22.2 15.0725 22.2 17.8668C22.2 18.2164 22.4837 18.5001 22.8333 18.5001C23.1829 18.5001 23.4667 18.2164 23.4667 17.8668C23.4667 14.3746 20.6255 11.5334 17.1333 11.5334Z" fill="#818288"/>
<path d="M17.1333 9C16.7837 9 16.5 9.28373 16.5 9.63333C16.5 9.98293 16.7837 10.2667 17.1333 10.2667C21.3247 10.2667 24.7333 13.6753 24.7333 17.8667C24.7333 18.2163 25.0171 18.5 25.3667 18.5C25.7163 18.5 26 18.2163 26 17.8667C26 12.9773 22.0214 9 17.1333 9Z" fill="#818288"/>
<path d="M24.1 22.9334C22.2608 22.9334 20.509 22.5331 18.894 21.744C18.742 21.668 18.5672 21.6591 18.4089 21.7149C18.2493 21.7706 18.1188 21.8871 18.0453 22.0379L17.0497 24.0987C14.4733 22.6611 12.3403 20.5293 10.9039 17.9529L12.9635 16.9547C13.1155 16.8813 13.2307 16.7508 13.2865 16.5912C13.3409 16.4329 13.3308 16.2581 13.2561 16.1061C12.4669 14.4911 12.0667 12.7393 12.0667 10.9001C12.0667 10.5505 11.7829 10.2667 11.4333 10.2667H7.63333C7.28373 10.2667 7 10.5505 7 10.9001C7 20.3291 14.6709 28.0001 24.1 28.0001C24.4496 28.0001 24.7333 27.7163 24.7333 27.3667V23.5667C24.7333 23.2171 24.4496 22.9334 24.1 22.9334Z" fill="#818288"/>
</svg>
