<svg width="76" height="76" viewBox="0 0 76 76" fill="none" xmlns="http://www.w3.org/2000/svg">
<path d="M69.2143 31.2143H46.1429C45.3934 31.2143 44.7857 30.6066 44.7857 29.8571V6.78571C44.7857 3.03833 41.7474 0 38 0C34.2526 0 31.2143 3.03833 31.2143 6.78571V29.8571C31.2143 30.6066 30.6066 31.2143 29.8571 31.2143H6.78571C3.03833 31.2143 0 34.2526 0 38C0 41.7474 3.03833 44.7857 6.78571 44.7857H29.8571C30.6066 44.7857 31.2143 45.3934 31.2143 46.1429V69.2143C31.2143 72.9617 34.2526 76 38 76C41.7474 76 44.7857 72.9617 44.7857 69.2143V46.1429C44.7857 45.3934 45.3934 44.7857 46.1429 44.7857H69.2143C72.9617 44.7857 76 41.7474 76 38C76 34.2526 72.9617 31.2143 69.2143 31.2143Z" fill="#3D3F4F"/>
</svg>
