<svg width="10" height="10" viewBox="0 0 10 10" fill="none" xmlns="http://www.w3.org/2000/svg">
<path d="M3.89862 5.00114L0.159756 1.26212C0.0569106 1.15919 0.000162974 1.02187 3.72529e-07 0.875449C3.72529e-07 0.728944 0.056748 0.591465 0.159756 0.488701L0.487399 0.16114C0.590407 0.0579689 0.727724 0.00146484 0.874309 0.00146484C1.02065 0.00146484 1.15797 0.0579689 1.26098 0.16114L4.99984 3.89992L8.73886 0.16114C8.84171 0.0579689 8.97911 0.00146484 9.12561 0.00146484C9.27195 0.00146484 9.40935 0.0579689 9.5122 0.16114L9.84 0.488701C10.0533 0.702034 10.0533 1.04903 9.84 1.26212L6.10106 5.00114L9.84 8.74C9.94293 8.84309 9.99959 8.98041 9.99959 9.12683C9.99959 9.27325 9.94293 9.41057 9.84 9.51358L9.51228 9.84114C9.40943 9.94423 9.27195 10.0008 9.12569 10.0008C8.97919 10.0008 8.84179 9.94423 8.73894 9.84114L4.99992 6.10228L1.26106 9.84114C1.15805 9.94423 1.02073 10.0008 0.87439 10.0008H0.874228C0.727805 10.0008 0.590488 9.94423 0.48748 9.84114L0.159838 9.51358C0.0569925 9.41065 0.000244141 9.27325 0.000244141 9.12683C0.000244141 8.98041 0.0569925 8.84309 0.159838 8.74008L3.89862 5.00114Z" fill="#4F4F4F"/>
</svg>
