<svg width="35" height="35" viewBox="0 0 35 35" fill="none" xmlns="http://www.w3.org/2000/svg">
<circle cx="17.5" cy="17.5" r="17.5" fill="#BDBFC7"/>
<path d="M16.9779 17.9775C18.6829 17.9775 19.9202 17.1371 20.556 15.5472C21.0439 14.3269 21.1097 12.8875 21.1097 11.6404C21.1097 9.3609 19.5651 8 16.9779 8C14.3908 8 12.8462 9.36086 12.8462 11.6404C12.8462 12.8875 12.912 14.3269 13.3999 15.5472C14.0357 17.1371 15.273 17.9775 16.9779 17.9775Z" fill="#818288"/>
<path d="M18.5113 19.0544H15.4208C12.4614 19.0544 10.0538 21.4621 10.0538 24.4214V24.7882C10.0538 26.5591 11.4946 27.9999 13.2656 27.9999H20.6665C22.4375 27.9999 23.8783 26.5591 23.8783 24.7882V24.4214C23.8782 21.462 21.4707 19.0544 18.5113 19.0544V19.0544Z" fill="#818288"/>
<path d="M22.3603 11.6404C22.3603 13.7199 22.153 15.9999 20.7722 17.59C21.1166 17.7251 21.5025 17.7943 21.927 17.7943C23.2185 17.7943 24.1556 17.1579 24.6371 15.9538C24.9951 15.0585 25.0434 14.0144 25.0434 13.1112C25.0434 11.5267 24.0375 10.4519 22.2156 10.3521C22.3113 10.7569 22.3603 11.1875 22.3603 11.6404V11.6404Z" fill="#818288"/>
<path d="M12.1 17.7944C12.5026 17.7944 12.8708 17.7325 13.2014 17.6109C11.8028 16.0187 11.5955 13.7178 11.5955 11.6405C11.5955 11.1893 11.6441 10.7603 11.7391 10.3567C10.0592 10.4738 8.98364 11.4581 8.98364 13.1112C8.98364 14.0144 9.03191 15.0585 9.38995 15.954C9.87144 17.158 10.8085 17.7944 12.1 17.7944V17.7944Z" fill="#818288"/>
<path d="M8.80324 24.4214C8.80324 22.0108 10.0989 19.8974 12.0304 18.7405H10.9939C8.79167 18.7405 7 20.5321 7 22.7344V22.9949C7 24.1387 7.78372 25.1027 8.84232 25.3784C8.79589 25.0287 8.80324 24.8151 8.80324 24.4214V24.4214Z" fill="#818288"/>
<path d="M23.0164 18.7405H21.9023C23.8335 19.8975 25.1289 22.011 25.1289 24.4214C25.1289 24.8114 25.1368 25.0352 25.0871 25.3974C26.1863 25.1507 27.0103 24.1675 27.0103 22.9949V22.7344C27.0103 20.5321 25.2186 18.7405 23.0164 18.7405Z" fill="#818288"/>
</svg>
