<svg width="35" height="35" viewBox="0 0 35 35" fill="none" xmlns="http://www.w3.org/2000/svg">
<circle cx="17.5" cy="17.5" r="17.5" fill="#BDBFC7"/>
<path d="M26.4536 19.6119L23.2167 16.6035C22.9354 16.375 22.3083 15.895 22.3083 15.895L20.2797 14.037C20.2368 14.0208 20.158 14.002 20.0609 14.002C19.9598 14.002 19.8928 14.0226 19.8758 14.03L18.4046 14.9678C17.9871 15.2198 17.5036 15.3524 17.0069 15.3524C16.1313 15.3524 15.3039 14.9424 14.7936 14.2545L14.6107 14.0081C14.1915 13.4428 14.0217 12.7501 14.1329 12.0569C14.2436 11.3642 14.6212 10.7586 15.1997 10.3499L15.5327 10.1167C15.0522 10.058 14.5193 10.1092 14.1294 10.276C14.1294 10.276 13.4761 10.563 13.2665 10.6518C12.7807 10.8579 12.0998 10.8549 12.0998 10.8549L10.5018 9.36621L5 14.8312L7.06891 16.912L7.53888 16.4197C8.02898 15.9055 8.71905 15.6101 9.43188 15.6101C10.108 15.6101 10.749 15.8666 11.2369 16.3317L11.4597 16.5439C11.7463 16.8174 11.9576 17.1395 12.0928 17.4869C12.5204 17.5968 12.9142 17.8138 13.2415 18.1258L13.4629 18.3376C13.9679 18.8181 14.2558 19.4675 14.2729 20.1667C14.4261 20.2612 14.5713 20.3728 14.7039 20.4997L14.928 20.7133C15.2417 21.0126 15.4649 21.3714 15.5962 21.756C15.9926 21.8716 16.358 22.0803 16.6626 22.3704L16.8892 22.5857C17.8003 23.4548 17.9451 24.8292 17.3063 25.8589L17.476 26.0173C17.9583 26.4658 18.7197 26.4382 19.1682 25.956L19.3778 25.7298C19.8167 25.2572 19.7948 24.5203 19.3397 24.07L20.8918 25.5097C21.3749 25.9573 22.1363 25.9293 22.5849 25.4462L22.7945 25.2209C23.2399 24.7413 23.2137 23.9864 22.7393 23.537L23.1384 23.9081C23.6211 24.3562 24.382 24.3277 24.8301 23.8455L25.0402 23.6197C25.4883 23.1366 25.4598 22.3752 24.9776 21.9267L24.6406 21.6143C25.1251 22.037 25.8655 22.0046 26.3052 21.5307L26.5161 21.3045C26.9642 20.8209 26.9367 20.0595 26.4536 19.6119Z" fill="#818288"/>
<path d="M15.9103 23.6114L15.6863 23.3983C15.4552 23.1782 15.1577 23.0688 14.8601 23.0688C14.5442 23.0688 14.2282 23.1927 13.9937 23.4386L13.9897 23.432C14.4435 22.9555 14.4256 22.1936 13.9491 21.7394L13.7254 21.5263C13.4953 21.3075 13.2008 21.199 12.905 21.199C12.6061 21.199 12.3081 21.3097 12.0771 21.5281L12.5256 21.0581C12.9802 20.5816 12.9627 19.8193 12.4853 19.3651L12.2622 19.152C12.032 18.9323 11.7353 18.8238 11.4391 18.8238C11.1314 18.8238 10.8247 18.9406 10.5919 19.1721C10.966 18.6943 10.9288 17.9985 10.4807 17.571L10.258 17.3583C10.027 17.1382 9.72853 17.0288 9.43141 17.0288C9.11459 17.0284 8.79909 17.1526 8.56455 17.3986L6.31579 19.7563C5.86157 20.2324 5.87951 20.9947 6.35736 21.4484L6.57965 21.6611C6.80939 21.8799 7.10432 21.9871 7.39881 21.9871C7.67056 21.9871 7.94186 21.8957 8.1624 21.7154L7.56991 22.3359C7.11613 22.8128 7.13408 23.5742 7.61017 24.0289L7.83465 24.242C8.0657 24.4621 8.36369 24.5715 8.66038 24.5715C8.97719 24.5715 9.29269 24.4477 9.52724 24.2017L9.98977 23.7164C9.578 24.1947 9.60557 24.9216 10.0672 25.3613L10.2917 25.5744C10.5223 25.7941 10.8203 25.9035 11.1179 25.9035C11.4342 25.9035 11.7502 25.7797 11.9843 25.5337L12.7277 24.7645C12.2731 25.2414 12.2906 26.0028 12.768 26.4575L12.992 26.6706C13.2222 26.8907 13.5198 27.0001 13.8173 27.0001C14.1337 27.0001 14.4497 26.8763 14.6838 26.6303L15.9506 25.3027C16.4052 24.8275 16.3864 24.0661 15.9103 23.6114Z" fill="#818288"/>
<path d="M25.1592 9.13609L23.8832 10.3885C23.8832 10.3885 23.4561 10.2922 23.1594 10.1478L21.1601 9.17503C20.9172 9.05689 20.6179 9 20.3129 9C19.874 9 19.422 9.11815 19.1052 9.34219L16.0127 11.5109C15.4754 11.8911 15.3564 12.6346 15.7484 13.1636L15.9318 13.4113C16.1834 13.75 16.5947 13.9351 17.0061 13.9351C17.2376 13.9351 17.4686 13.8769 17.6716 13.7544L19.1389 12.8179C19.3984 12.6617 19.7279 12.5847 20.0609 12.5847C20.4516 12.5847 20.8468 12.691 21.136 12.8989L23.2657 14.8501C23.8005 15.2347 24.6319 15.9169 25.115 16.3646L27.0491 18.1622L30.4601 14.2099L25.1592 9.13609Z" fill="#818288"/>
</svg>
