<svg width="108" height="114" viewBox="0 0 108 114" fill="none" xmlns="http://www.w3.org/2000/svg">
<path d="M75.7255 39.3047L66.8018 38.9774L64.8672 91.8102L73.7908 92.1362L75.7255 39.3047Z" fill="#3D404F"/>
<path d="M58.4647 39.1411H49.5353V91.9741H58.4647V39.1411Z" fill="#3D404F"/>
<path d="M43.1312 91.8088L41.1966 38.9758L32.2729 39.3034L34.2078 92.1361L43.1312 91.8088Z" fill="#3D404F"/>
<path d="M0.869507 17.115V26.0444H10.1741L17.5556 109.927C17.758 112.232 19.6884 114 22.0025 114H85.8469C88.1612 114 90.093 112.231 90.2938 109.925L97.6755 26.0444H107.13V17.115H0.869507ZM81.7574 105.071H26.0909L19.1378 26.0444H88.7121L81.7574 105.071Z" fill="#3D404F"/>
<path d="M68.5848 0H39.415C35.3119 0 31.9739 3.33806 31.9739 7.44117V21.5796H40.9033V8.92941H67.0966V21.5796H76.026V7.44117C76.026 3.33806 72.6879 0 68.5848 0Z" fill="#3D404F"/>
</svg>
