<svg width="19" height="33" viewBox="0 0 19 33" fill="none" xmlns="http://www.w3.org/2000/svg">
<path d="M10.0558 14.4833C5.89411 13.4016 4.55581 12.2925 4.55581 10.5508C4.55581 8.5525 6.39831 7.15 9.50581 7.15C12.7691 7.15 13.9791 8.7083 14.0891 11H18.1408C18.0216 7.8375 16.0875 4.9592 12.2558 4.015V0H6.75581V3.96C3.19911 4.7392 0.339109 7.0308 0.339109 10.5783C0.339109 14.8133 3.84992 16.9216 8.95581 18.15C13.5483 19.25 14.4558 20.8542 14.4558 22.5775C14.4558 23.8333 13.5666 25.85 9.50581 25.85C5.72911 25.85 4.235 24.1542 4.0425 22H0C0.229195 26.015 3.2267 28.2608 6.75581 29.0217V33H12.2558V29.0583C15.8216 28.3708 18.6725 26.3083 18.6725 22.5408C18.6725 17.3525 14.2175 15.5742 10.0558 14.4833Z" fill="#3D404F"/>
</svg>
