<svg width="62" height="248" viewBox="0 0 62 248" fill="none" xmlns="http://www.w3.org/2000/svg">
<path d="M31 155C48.1208 155 62 141.121 62 124C62 106.879 48.1208 93 31 93C13.8792 93 0 106.879 0 124C0 141.121 13.8792 155 31 155Z" fill="#3D404F"/>
<path d="M31 248C48.1208 248 62 234.121 62 217C62 199.879 48.1208 186 31 186C13.8792 186 0 199.879 0 217C0 234.121 13.8792 248 31 248Z" fill="#3D404F"/>
<path d="M31 62C48.1208 62 62 48.1208 62 31C62 13.8792 48.1208 0 31 0C13.8792 0 0 13.8792 0 31C0 48.1208 13.8792 62 31 62Z" fill="#3D404F"/>
</svg>
