<svg width="14" height="14" viewBox="0 0 14 14" fill="none" xmlns="http://www.w3.org/2000/svg">
<path d="M10.377 4.51487C10.2577 4.39546 10.0464 4.39546 9.92709 4.51487L3.87512 10.5719C3.80273 10.6444 3.76979 10.747 3.78593 10.8481C3.8024 10.9492 3.86641 11.0362 3.95775 11.082L4.45459 11.3307V12.1674L2.93236 12.603L1.39585 11.0652L1.83106 9.54163H2.66703L2.9156 10.0389C2.96127 10.1303 3.04828 10.1944 3.14925 10.2109C3.16634 10.2137 3.18344 10.2149 3.2002 10.2149C3.28378 10.2149 3.36519 10.1819 3.42517 10.1216L9.47714 4.06453C9.5368 4.00482 9.57036 3.92398 9.57036 3.83938C9.57036 3.75479 9.5368 3.67395 9.47714 3.61423L8.30697 2.44304C8.24731 2.38332 8.16653 2.34973 8.08199 2.34973H8.08137C7.99653 2.35003 7.91543 2.38395 7.8561 2.44396L1.3651 8.99898C1.36196 9.00217 1.36211 9.00703 1.3591 9.01028C1.32644 9.04557 1.29917 9.08632 1.28491 9.1358L0.732444 11.0705L0.0122123 13.5941C-0.0194963 13.7052 0.0115859 13.8249 0.0933185 13.9067C0.153902 13.9673 0.235008 14 0.318292 14C0.347495 14 0.376698 13.9959 0.405603 13.9879L2.92711 13.267L4.86012 12.7141C4.86594 12.7124 4.86993 12.708 4.87563 12.706C4.89571 12.6991 4.91327 12.6878 4.93174 12.6769C4.94988 12.6661 4.96801 12.6565 4.98334 12.6427C4.98746 12.6391 4.99286 12.6377 4.99683 12.6338L11.5463 6.13729C11.6062 6.0779 11.6401 5.99674 11.6404 5.91184C11.6407 5.82724 11.6071 5.74608 11.5472 5.68606L10.377 4.51487Z" fill="#F69824"/>
<path d="M13.6271 2.27199L11.718 0.361294C11.237 -0.120123 10.4002 -0.121048 9.91735 0.362219L8.75183 1.53932C8.62848 1.66403 8.62878 1.86461 8.75275 1.9887L12.0011 5.23975C12.0632 5.30194 12.1446 5.33305 12.226 5.33305C12.3071 5.33305 12.3879 5.30227 12.45 5.2407L13.6271 4.07327C13.8676 3.83257 13.9999 3.51286 13.9999 3.17266C13.9999 2.83245 13.8676 2.51268 13.6271 2.27199Z" fill="#F69824"/>
</svg>
