<svg width="15" height="12" viewBox="0 0 15 12" fill="none" xmlns="http://www.w3.org/2000/svg">
<path d="M13.4604 11.1958C13.7725 11.1958 14.0429 11.0928 14.2728 10.8893L10.3394 6.95577C10.245 7.02335 10.1536 7.08906 10.0672 7.15155C9.7728 7.36842 9.53389 7.53765 9.35044 7.65892C9.16702 7.78046 8.92298 7.90435 8.61834 8.03083C8.3135 8.15747 8.0295 8.22058 7.76605 8.22058H7.75833H7.75062C7.48714 8.22058 7.20315 8.15749 6.89833 8.03083C6.59351 7.90435 6.34947 7.78046 6.16622 7.65892C5.9828 7.53765 5.74402 7.36844 5.44952 7.15155C5.36744 7.09138 5.27643 7.02536 5.17802 6.95471L1.2439 10.8893C1.47375 11.0928 1.74434 11.1958 2.05639 11.1958H13.4604Z" fill="#3D404F"/>
<path d="M1.59922 4.47892C1.30489 4.28269 1.04388 4.05795 0.81665 3.80481V9.78934L4.28351 6.32248C3.58994 5.83828 2.69631 5.22446 1.59922 4.47892Z" fill="#3D404F"/>
<path d="M13.9254 4.47892C12.8701 5.19316 11.9732 5.80803 11.2346 6.32387L14.7001 9.78949V3.80481C14.4779 4.05286 14.2197 4.27745 13.9254 4.47892Z" fill="#3D404F"/>
<path d="M13.4614 0.287476H2.05738C1.65952 0.287476 1.35365 0.421823 1.13937 0.690242C0.924921 0.958787 0.817871 1.29463 0.817871 1.6974C0.817871 2.02273 0.959932 2.37524 1.24393 2.75502C1.52792 3.13464 1.83012 3.43283 2.15036 3.64973C2.32592 3.77377 2.85535 4.14183 3.73864 4.75378C4.21546 5.0842 4.63013 5.37221 4.98646 5.62074C5.2902 5.83237 5.55214 6.01564 5.7684 6.16773C5.79323 6.18515 5.83228 6.21308 5.8841 6.25013C5.93993 6.29023 6.01058 6.34113 6.09775 6.40406C6.26559 6.52546 6.40503 6.62358 6.51609 6.69855C6.627 6.77353 6.76137 6.85729 6.91901 6.9503C7.07652 7.04319 7.22508 7.11303 7.36452 7.15949C7.50399 7.20592 7.63309 7.22921 7.75186 7.22921H7.75958H7.76729C7.88604 7.22921 8.01517 7.20592 8.15466 7.15949C8.29407 7.11303 8.44251 7.04334 8.60015 6.9503C8.75763 6.85729 8.89183 6.77336 9.00309 6.69855C9.11415 6.62358 9.25359 6.52548 9.42146 6.40406C9.50844 6.34113 9.5791 6.29021 9.63493 6.25026C9.68678 6.21305 9.7258 6.1853 9.75078 6.16773C9.91925 6.0505 10.1818 5.86798 10.5348 5.62288C11.1771 5.17661 12.123 4.51976 13.3766 3.64973C13.7536 3.3864 14.0685 3.06863 14.3217 2.69687C14.5744 2.3251 14.7011 1.93514 14.7011 1.52711C14.7011 1.1862 14.5782 0.894487 14.3331 0.651526C14.0877 0.408868 13.7971 0.287476 13.4614 0.287476Z" fill="#3D404F"/>
</svg>
