<svg width="13" height="13" viewBox="0 0 13 13" fill="none" xmlns="http://www.w3.org/2000/svg">
<path d="M6.49998 0C10.09 0 13 2.91037 13 6.50002C13 10.0901 10.09 13 6.49998 13C2.90993 13 0 10.09 0 6.50002C0 2.91037 2.90997 0 6.49998 0Z" fill="#3B5998"/>
<path d="M4.77144 10.0002L4.90031 9.96417C5.02427 9.92952 5.09667 9.80095 5.06204 9.67699L3.58862 4.4042C3.56783 4.32979 3.51833 4.26668 3.45101 4.22877C3.38369 4.19086 3.30407 4.18124 3.22965 4.20203L3.21301 4.20668C3.05805 4.24998 2.96752 4.4107 3.01082 4.56566L4.48427 9.83845C4.51891 9.96241 4.64748 10.0348 4.77144 10.0002V10.0002Z" fill="white"/>
<path d="M9.96007 6.3154C9.49282 6.08242 9.06056 5.78504 8.67593 5.43196C8.6436 5.40236 8.63096 5.35693 8.64335 5.31489C8.83393 4.59391 8.97546 3.86085 9.06697 3.12075C9.08145 2.99764 9.01507 2.96144 8.94507 3.04592C7.57162 4.68851 5.19524 2.7454 3.78076 4.23833C3.79774 4.27013 3.8111 4.30373 3.82059 4.33851L4.77645 7.76127C6.19335 6.28644 8.56128 8.21747 9.93231 6.57851C10.0023 6.49402 10.0156 6.33954 9.96007 6.3154V6.3154Z" fill="white"/>
</svg>
