<svg width="21" height="19" viewBox="0 0 21 19" fill="none" xmlns="http://www.w3.org/2000/svg">
<path d="M12.3559 8.30012C13.3811 9.32528 13.3811 10.9874 12.3559 12.0125C11.3308 13.0377 9.66867 13.0377 8.64351 12.0125C7.61834 10.9874 7.61834 9.32528 8.64351 8.30012C9.66867 7.27496 11.3308 7.27496 12.3559 8.30012Z" fill="#CBD6E2"/>
<path d="M18.375 2.93735H16.5612L15.248 0.312256H5.7507L4.43878 2.93864L2.62763 2.94186C1.18372 2.94444 0.00829759 4.12111 0.0070508 5.56566L0 16.0621C0 17.5099 1.17731 18.6879 2.62509 18.6879H18.375C19.8227 18.6879 21 17.5105 21 16.0628V5.5624C21 4.11466 19.8227 2.93735 18.375 2.93735ZM10.4997 15.4065C7.60476 15.4065 5.24949 13.0512 5.24949 10.1563C5.24949 7.26138 7.60476 4.90611 10.4997 4.90611C13.3946 4.90611 15.7499 7.26138 15.7499 10.1563C15.7499 13.0512 13.3946 15.4065 10.4997 15.4065Z" fill="#CBD6E2"/>
</svg>
