<svg width="25" height="25" viewBox="0 0 25 25" fill="none" xmlns="http://www.w3.org/2000/svg">
<path d="M11.4284 23.0045H2.94793C2.63285 23.0045 2.34574 22.8584 2.16009 22.6038C1.9744 22.349 1.92328 22.0307 2.01976 21.7306C2.98324 18.7352 5.92152 16.6431 9.16507 16.6431C10.6743 16.6431 12.1236 17.0976 13.3564 17.9574C13.7979 18.2653 14.4055 18.1571 14.7136 17.7155C15.0215 17.274 14.9132 16.6664 14.4717 16.3584C13.8614 15.9328 13.2095 15.5855 12.5275 15.3205C13.4348 14.4955 14.0368 13.3402 14.1414 12.0466C15.5172 10.7064 17.3206 9.97202 19.2539 9.97202C20.7631 9.97202 22.2124 10.4265 23.4452 11.2863C23.8867 11.5942 24.4943 11.486 24.8024 11.0444C25.1103 10.6029 25.002 9.99531 24.5605 9.6873C23.9502 9.26167 23.2983 8.91445 22.6163 8.64937C23.6172 7.73931 24.2465 6.42739 24.2465 4.97124C24.2465 2.23013 22.0164 0 19.2752 0C16.534 0 14.3039 2.23013 14.3039 4.97134C14.3039 6.42158 14.9282 7.72881 15.9221 8.63843C15.7861 8.69077 15.6511 8.74644 15.517 8.80542C14.9071 9.07383 14.3334 9.40332 13.8001 9.79092C13.0644 7.96401 11.2735 6.67114 9.18636 6.67114C6.44515 6.67114 4.21507 8.90127 4.21507 11.6425C4.21507 13.0885 4.83568 14.3923 5.82445 15.3016C3.1805 16.2924 1.0367 18.4202 0.163949 21.1338C-0.125504 22.0337 0.0278163 22.9881 0.584652 23.7521C1.14139 24.516 2.00272 24.9542 2.94798 24.9542H11.4285C11.9668 24.9542 12.4032 24.5177 12.4032 23.9794C12.4032 23.4411 11.9667 23.0045 11.4284 23.0045ZM19.2753 1.94951C20.9415 1.94951 22.2971 3.30508 22.2971 4.97129C22.2971 6.6375 20.9415 7.99307 19.2753 7.99307C17.6091 7.99307 16.2535 6.6375 16.2535 4.97129C16.2535 3.30508 17.6091 1.94951 19.2753 1.94951ZM9.18641 8.62061C10.8526 8.62061 12.2082 9.97617 12.2082 11.6424C12.2082 13.3086 10.8526 14.6642 9.18641 14.6642C7.5202 14.6642 6.16463 13.3086 6.16463 11.6424C6.16463 9.97617 7.5202 8.62061 9.18641 8.62061Z" fill="#3D404F"/>
<path d="M24.5712 15.922C24.1334 15.6086 23.5245 15.7094 23.2112 16.1472L18.4065 22.8585C18.2753 23.0106 18.1108 23.0435 18.0227 23.0493C17.9321 23.0555 17.756 23.0438 17.605 22.9001L14.4945 19.9134C14.1061 19.5404 13.489 19.5531 13.1163 19.9413C12.7434 20.3296 12.7559 20.9467 13.1442 21.3196L16.2578 24.3092C16.7241 24.7531 17.3466 25.0001 17.987 25.0001C18.0421 25.0001 18.0972 24.9983 18.1524 24.9946C18.8501 24.9481 19.5014 24.6088 19.9395 24.0638C19.9509 24.0497 19.9617 24.0353 19.9723 24.0206L24.7965 17.282C25.1097 16.8443 25.009 16.2354 24.5712 15.922Z" fill="#3D404F"/>
</svg>
