<svg width="23" height="21" viewBox="0 0 23 21" fill="none" xmlns="http://www.w3.org/2000/svg">
<path d="M22.7192 9.34394L14.0992 0.723967C13.8253 0.450992 13.4144 0.367655 13.0553 0.516138C12.6971 0.663639 12.4643 1.0142 12.4643 1.40114V5.23608C6.95328 5.4621 2.14527 9.18306 0.605165 14.515C-0.0614421 16.8271 -0.00971848 18.7052 0.00940895 19.4131L0.0132438 19.5989C0.0132438 20.0299 0.301512 20.4082 0.716235 20.5222C0.80149 20.5452 0.886699 20.5566 0.971019 20.5566C1.3024 20.5566 1.61845 20.3833 1.79373 20.0892C5.58746 13.7124 10.6139 13.5313 12.4643 13.7114V18.6411C12.4643 19.0281 12.6971 19.3786 13.0553 19.5261C13.4144 19.6756 13.8253 19.5922 14.0992 19.3183L22.7192 10.6983C23.0937 10.3237 23.0937 9.7184 22.7192 9.34394Z" fill="#9A9DA6"/>
</svg>
