<svg width="22" height="22" viewBox="0 0 22 22" fill="none" xmlns="http://www.w3.org/2000/svg">
<path d="M11 0C4.9347 0 0 4.9347 0 11C0 17.0653 4.9347 22 11 22C17.0653 22 22 17.0653 22 11C22 4.9347 17.0653 0 11 0ZM11 20.1667C8.50283 20.1667 6.2382 19.1604 4.58335 17.5353V16.0417C4.58335 15.6057 4.77851 15.3251 5.0041 15.0001C5.23639 14.6658 5.5 14.2867 5.5 13.75C5.5 12.8758 4.71088 12.7872 4.28656 12.7398C3.98307 12.7058 3.69664 12.6735 3.53238 12.5093C3.40794 12.3848 3.2835 12.1588 3.15193 11.9198C2.89064 11.4444 2.53645 10.8157 1.86214 10.4307C2.15858 5.64162 6.13753 1.83335 11 1.83335C11.2516 1.83335 11.4989 1.85114 11.7455 1.87112C11.6953 1.90407 11.6338 1.92646 11.5926 1.96762C11.5036 2.0567 11.4548 2.1789 11.4583 2.3051C11.4624 2.43087 11.5179 2.54994 11.6119 2.63407C11.7766 2.78042 11.8084 2.85429 11.8146 2.85429C11.8043 2.8762 11.7202 3.01989 11.2511 3.25802C10.4768 3.65054 9.5825 4.45397 9.44956 5.2901C9.38867 5.66964 9.4988 6.0219 9.75928 6.28242C9.84521 6.36836 9.96157 6.4167 10.0833 6.4167C10.7198 6.4167 11.2117 6.18127 11.6875 5.95388C12.1758 5.72064 12.6373 5.5 13.2917 5.5C15.0905 5.5 16.5 5.90283 16.5 6.41665C16.5 6.60507 16.4413 6.66282 16.419 6.6843C16.1938 6.90585 15.4272 6.89154 14.7531 6.88123C14.5745 6.87809 14.3919 6.87496 14.2083 6.87496C13.5862 6.87496 13.3933 6.78408 13.1699 6.67846C12.9099 6.55583 12.6154 6.41661 11.9167 6.41661C11.1611 6.41661 9.75704 6.55312 8.84258 7.46754C8.09467 8.21502 8.17386 9.10929 8.22581 9.70058C8.23788 9.83666 8.25 9.96557 8.25 10.0833C8.25 10.986 9.1725 11.4583 10.0833 11.4583C11.4843 11.4583 12.6955 11.7196 12.8333 11.9166C12.8333 12.4296 12.986 12.78 13.1086 13.0611C13.2107 13.2961 13.2917 13.4814 13.2917 13.7499C13.2917 13.9576 13.2576 14.0019 13.1659 14.1201C12.9909 14.3475 12.8333 14.595 12.8333 15.1249C12.8333 16.0895 13.7621 17.1476 13.8677 17.2653C13.9559 17.3629 14.0803 17.4166 14.2083 17.4166C14.2463 17.4166 14.2844 17.4121 14.322 17.4023C14.5919 17.3329 16.9583 16.6817 16.9583 15.125C16.9583 14.6371 17.11 14.5055 17.3401 14.3058C17.5657 14.1098 17.875 13.8417 17.875 13.2916C17.875 12.9241 18.5271 11.9757 19.1314 11.3074C19.2169 11.213 19.2594 11.0868 19.2482 10.9597C19.237 10.8326 19.1734 10.7157 19.0728 10.6378C18.7165 10.3617 17.7326 9.46245 17.4032 8.5901C17.5899 8.68768 17.8235 8.84658 18.0093 9.03233C18.1619 9.18586 18.3665 9.25925 18.5992 9.24988C18.9704 9.2287 19.4114 8.93539 19.8293 8.56956C20.0431 9.34497 20.1667 10.1575 20.1667 11C20.1667 16.0546 16.0546 20.1667 11 20.1667Z" fill="#3D404F"/>
</svg>
