<svg width="16" height="16" viewBox="0 0 16 16" fill="none" xmlns="http://www.w3.org/2000/svg">
<path d="M0 8.5C0 9.709 0.859 10.718 2 10.95L2 16H3L3 10.95C4.141 10.718 5 9.71 5 8.5C5 7.29 4.141 6.282 3 6.05L3 0H2L2 6.05C0.859 6.282 0 7.291 0 8.5Z" fill="#33475B"/>
<path d="M6 3.5C6 4.709 6.859 5.718 8 5.95V16H9V5.95C10.141 5.718 11 4.71 11 3.5C11 2.29 10.141 1.282 9 1.05V0H8V1.05C6.859 1.282 6 2.291 6 3.5Z" fill="#33475B"/>
<path d="M11 10.5C11 11.709 11.859 12.718 13 12.95V16H14V12.95C15.141 12.718 16 11.71 16 10.5C16 9.29 15.141 8.282 14 8.05V0H13V8.05C11.859 8.282 11 9.291 11 10.5Z" fill="#33475B"/>
</svg>
