<svg width="25" height="19" viewBox="0 0 25 19" fill="none" xmlns="http://www.w3.org/2000/svg">
<path d="M0.00148201 8.78439C0.0120277 8.62438 0.0618343 8.4651 0.149969 8.31812L4.83694 0.505616C5.02512 0.191748 5.36379 0 5.73 0H19.2701C19.6362 0 19.9749 0.191748 20.1631 0.505567L24.85 8.31808C24.9382 8.46505 24.988 8.62418 24.9985 8.78419C25.0018 8.80802 24.9985 16.6667 24.9985 16.6667C24.9986 17.8157 24.0638 18.75 22.9155 18.75H2.08454C0.936199 18.75 0.00143242 17.8157 0.00143242 16.6667C0.0014801 16.6667 -0.00183868 8.80821 0.00148201 8.78439ZM5.2092 8.33336C6.35754 8.33336 7.29231 9.26769 7.29231 10.4167C7.29231 10.9909 7.75915 11.4584 8.33386 11.4584H16.6662C17.2409 11.4584 17.7077 10.9909 17.7077 10.4167C17.7077 9.26774 18.6425 8.33336 19.7909 8.33336H22.4299L18.6802 2.08335H6.31994L2.57023 8.33336H5.2092Z" fill="#3D404F"/>
</svg>
