<svg width="26" height="25" viewBox="0 0 26 25" fill="none" xmlns="http://www.w3.org/2000/svg">
<g opacity="0.5">
<path d="M13.0594 24.7279C19.8568 24.7279 25.3671 19.2175 25.3671 12.4201C25.3671 5.62278 19.8568 0.112427 13.0594 0.112427C6.26206 0.112427 0.751709 5.62278 0.751709 12.4201C0.751709 19.2175 6.26206 24.7279 13.0594 24.7279Z" fill="url(#paint0_linear)"/>
<path d="M13.0593 15.4004C11.4159 15.4004 10.0791 14.0632 10.0791 12.4198C10.0791 10.7764 11.4159 9.44006 13.0593 9.44006C14.7027 9.44006 16.0399 10.7764 16.0399 12.4198C16.0399 14.0632 14.7027 15.4004 13.0593 15.4004ZM13.0593 10.2422C11.8585 10.2422 10.8812 11.2189 10.8812 12.4198C10.8812 13.6207 11.8585 14.5982 13.0593 14.5982C14.2605 14.5982 15.2378 13.6207 15.2378 12.4198C15.2378 11.2189 14.2605 10.2422 13.0593 10.2422Z" fill="white"/>
<path d="M16.4667 9.49475C16.6714 9.49475 16.8374 9.32879 16.8374 9.12408C16.8374 8.91937 16.6714 8.75342 16.4667 8.75342C16.262 8.75342 16.0961 8.91937 16.0961 9.12408C16.0961 9.32879 16.262 9.49475 16.4667 9.49475Z" fill="white"/>
<path d="M15.6244 18.2471H10.4944C8.69543 18.2471 7.23218 16.7837 7.23218 14.9852V9.85516C7.23218 8.0559 8.69543 6.59265 10.4944 6.59265H15.6244C17.4233 6.59265 18.8866 8.0559 18.8866 9.85516V14.9852C18.8866 16.7837 17.4233 18.2471 15.6244 18.2471ZM10.4944 7.39478C9.13804 7.39478 8.03431 8.49843 8.03431 9.85516V14.9852C8.03431 16.3412 9.13804 17.4449 10.4944 17.4449H15.6244C16.9807 17.4449 18.0844 16.3412 18.0844 14.9852V9.85516C18.0844 8.49843 16.9807 7.39478 15.6244 7.39478H10.4944Z" fill="white"/>
</g>
<defs>
<linearGradient id="paint0_linear" x1="13.0594" y1="26.2833" x2="13.0594" y2="-1.92214" gradientUnits="userSpaceOnUse">
<stop offset="0.09694" stop-color="#FFD879"/>
<stop offset="0.15387" stop-color="#FCCB76"/>
<stop offset="0.25828" stop-color="#F5AA6C"/>
<stop offset="0.39756" stop-color="#E9755E"/>
<stop offset="0.44898" stop-color="#E45F58"/>
<stop offset="0.67857" stop-color="#D22A9C"/>
<stop offset="1" stop-color="#6968DF"/>
</linearGradient>
</defs>
</svg>
