<svg width="35" height="35" viewBox="0 0 35 35" fill="none" xmlns="http://www.w3.org/2000/svg">
<circle cx="17.5" cy="17.5" r="17.5" fill="#BDBFC7"/>
<path d="M17.7143 7.00875C17.7143 7.00875 23.4572 6.49446 22.7714 13.3516C22.7714 13.3516 22.0857 19.1802 17.7143 19.4802C17.7143 19.4802 12.8286 19.6516 12.4429 12.3659C12.4429 12.3659 12.0143 7.00875 17.7143 7.00875Z" fill="#818288"/>
<path d="M17.5279 20.6438L18.8136 21.9659L18.1707 23.3159L18.5414 24.4152L21.0143 19.8873C21.0143 19.8873 25.4714 21.8373 26.4357 22.8873C26.4357 22.8873 27.7 24.0873 28 26.723H7C7 26.723 7.48643 23.4809 9.28643 22.3088C9.28643 22.3088 13.2293 20.0802 14.0157 19.8873L16.4071 24.4152L16.8079 23.348L16.1714 21.9659" fill="#818288"/>
</svg>
