<svg width="21" height="21" viewBox="0 0 21 21" fill="none" xmlns="http://www.w3.org/2000/svg">
<rect x="0.5" y="0.5" width="20" height="20" rx="2.5" fill="white" stroke="#CED4DA"/>
<path d="M15.9785 5.22792C15.288 4.43608 14.3301 4 13.2812 4C11.8061 4 10.8722 4.89039 10.3485 5.63736C10.2126 5.83118 10.097 6.02554 10 6.20843C9.90296 6.02554 9.7874 5.83118 9.6515 5.63736C9.12782 4.89039 8.19389 4 6.71875 4C5.6699 4 4.71196 4.4361 4.02143 5.22795C3.36277 5.98331 3 6.99496 3 8.07653C3 9.25385 3.45481 10.3489 4.43131 11.5226C5.30404 12.5716 6.55958 13.6529 8.01348 14.905C8.55524 15.3716 9.11548 15.8541 9.71193 16.3815L9.72984 16.3973C9.80717 16.4658 9.90359 16.4999 10 16.4999C10.0964 16.4999 10.1928 16.4657 10.2702 16.3973L10.2881 16.3815C10.8845 15.8541 11.4448 15.3716 11.9866 14.9049C13.4404 13.6529 14.696 12.5716 15.5687 11.5226C16.5452 10.3488 17 9.25385 17 8.07653C17 6.99496 16.6372 5.98331 15.9785 5.22792ZM11.4545 14.274C10.9875 14.6762 10.5068 15.0901 10 15.5354C9.49321 15.0902 9.01254 14.6762 8.54542 14.2739C5.70006 11.8235 3.82031 10.2046 3.82031 8.07653C3.82031 7.19692 4.11029 6.37993 4.63685 5.77608C5.16945 5.16538 5.9088 4.82904 6.71875 4.82904C7.84337 4.82904 8.57036 5.52925 8.98216 6.11665C9.35154 6.64348 9.54429 7.17456 9.61002 7.37842C9.66501 7.54907 9.82243 7.66455 10 7.66455C10.1776 7.66455 10.335 7.54907 10.39 7.37842C10.4557 7.17456 10.6485 6.64348 11.0178 6.11662C11.4296 5.52925 12.1566 4.82904 13.2812 4.82904C14.0912 4.82904 14.8305 5.16538 15.3631 5.77608C15.8897 6.37993 16.1797 7.19692 16.1797 8.07653C16.1797 10.2046 14.2999 11.8235 11.4545 14.274Z" fill="#3D404F"/>
</svg>
