<svg width="17" height="14" viewBox="0 0 17 14" fill="none" xmlns="http://www.w3.org/2000/svg">
<path d="M16.4344 2.0846C16.0951 1.72909 15.6264 1.51901 15.0932 1.51901H12.4107V1.48669C12.4107 1.0827 12.2491 0.694867 11.9743 0.436312C11.6996 0.161597 11.328 0 10.924 0H6.07605C5.6559 0 5.28422 0.161597 5.00951 0.436312C4.73479 0.711027 4.5732 1.0827 4.5732 1.48669V1.51901H1.90685C1.37358 1.51901 0.904944 1.72909 0.56559 2.0846C0.226236 2.42396 0 2.90875 0 3.42586V11.4734C0 12.0067 0.210076 12.4753 0.56559 12.8146C0.904944 13.154 1.38973 13.3802 1.90685 13.3802H15.0932C15.6264 13.3802 16.0951 13.1702 16.4344 12.8146C16.7738 12.4753 17 11.9905 17 11.4734V3.42586C17 2.89259 16.7899 2.42396 16.4344 2.0846ZM16.1597 11.4734H16.1435C16.1435 11.7643 16.0304 12.0228 15.8365 12.2167C15.6426 12.4107 15.384 12.5238 15.0932 12.5238H1.90685C1.61597 12.5238 1.35742 12.4107 1.1635 12.2167C0.969582 12.0228 0.856465 11.7643 0.856465 11.4734V3.42586C0.856465 3.13498 0.969582 2.87643 1.1635 2.68251C1.35742 2.48859 1.61597 2.37548 1.90685 2.37548H5.02567C5.26806 2.37548 5.46198 2.18156 5.46198 1.93916V1.47053C5.46198 1.29278 5.52662 1.13118 5.63974 1.01806C5.75286 0.904944 5.91445 0.840305 6.09221 0.840305H10.924C11.1017 0.840305 11.2633 0.904944 11.3764 1.01806C11.4896 1.13118 11.5542 1.29278 11.5542 1.47053V1.93916C11.5542 2.18156 11.7481 2.37548 11.9905 2.37548H15.1093C15.4002 2.37548 15.6588 2.48859 15.8527 2.68251C16.0466 2.87643 16.1597 3.13498 16.1597 3.42586V11.4734Z" fill="#9A9DA6"/>
<path d="M8.49995 3.47449C7.40109 3.47449 6.39918 3.92696 5.68816 4.63799C4.96097 5.36517 4.52466 6.35092 4.52466 7.44978C4.52466 8.54864 4.97713 9.55054 5.68816 10.2616C6.41534 10.9888 7.40109 11.4251 8.49995 11.4251C9.59881 11.4251 10.6007 10.9726 11.3117 10.2616C12.0389 9.53438 12.4752 8.54864 12.4752 7.44978C12.4752 6.35092 12.0228 5.34901 11.3117 4.63799C10.6007 3.92696 9.59881 3.47449 8.49995 3.47449ZM10.6977 9.66366C10.1321 10.2131 9.35641 10.5686 8.49995 10.5686C7.64348 10.5686 6.86782 10.2131 6.30223 9.66366C5.73664 9.09807 5.39728 8.3224 5.39728 7.46594C5.39728 6.60947 5.7528 5.8338 6.30223 5.26821C6.86782 4.70263 7.64348 4.36327 8.49995 4.36327C9.35641 4.36327 10.1321 4.71878 10.6977 5.26821C11.2633 5.8338 11.6026 6.60947 11.6026 7.46594C11.6188 8.3224 11.2633 9.09807 10.6977 9.66366Z" fill="#9A9DA6"/>
<path d="M14.2529 5.0419C14.6902 5.0419 15.0447 4.68739 15.0447 4.25008C15.0447 3.81276 14.6902 3.45825 14.2529 3.45825C13.8156 3.45825 13.4611 3.81276 13.4611 4.25008C13.4611 4.68739 13.8156 5.0419 14.2529 5.0419Z" fill="#9A9DA6"/>
</svg>
