<svg width="17" height="17" viewBox="0 0 17 17" fill="none" xmlns="http://www.w3.org/2000/svg">
<path d="M10.3726 6.6262C10.1712 6.42363 9.94794 6.24407 9.7069 6.09079C9.06845 5.68197 8.32623 5.46473 7.56811 5.46473C6.51586 5.46277 5.50636 5.88086 4.76361 6.6262L1.16026 10.2324C0.418765 10.9753 0.00200754 11.9819 0.00134359 13.0315C-5.06863e-05 15.2218 1.7744 16.9986 3.96475 17C5.01538 17.0036 6.02394 16.5875 6.76643 15.8442L9.74089 12.8697C9.79494 12.8161 9.82512 12.743 9.82468 12.667C9.82379 12.5105 9.69621 12.3844 9.53975 12.3853H9.42645C8.805 12.3875 8.18909 12.2682 7.61345 12.0341C7.50739 11.9904 7.38549 12.015 7.30469 12.0964L5.16589 14.238C4.50175 14.9021 3.42497 14.9021 2.76082 14.238C2.09668 13.5738 2.09668 12.4971 2.76082 11.8329L6.37835 8.21824C7.04196 7.55545 8.11699 7.55545 8.7806 8.21824C9.22783 8.63914 9.92544 8.63914 10.3726 8.21824C10.565 8.02566 10.6817 7.77024 10.7013 7.49869C10.7219 7.17418 10.6023 6.85639 10.3726 6.6262Z" fill="#CBD6E2"/>
<path d="M15.837 1.16166C14.2882 -0.38722 11.7769 -0.38722 10.2281 1.16166L7.25641 4.13045C7.17482 4.21245 7.15128 4.33577 7.19692 4.44207C7.24204 4.54867 7.34747 4.61709 7.4632 4.61486H7.568C8.18872 4.61373 8.80363 4.73401 9.37818 4.96898C9.48424 5.01263 9.60614 4.988 9.68694 4.90666L11.8201 2.77637C12.4842 2.11223 13.561 2.11223 14.2251 2.77637C14.8893 3.44051 14.8893 4.5173 14.2251 5.18144L11.5679 7.83578L11.5453 7.86128L10.6161 8.78479C9.95249 9.44757 8.87746 9.44757 8.21385 8.78479C7.76662 8.36388 7.06902 8.36388 6.62182 8.78479C6.42818 8.97883 6.31142 9.23647 6.2932 9.50998C6.27248 9.83449 6.39216 10.1523 6.62182 10.3825C6.94971 10.7118 7.33333 10.9803 7.75494 11.1757C7.81442 11.204 7.87391 11.2267 7.9334 11.2522C7.99289 11.2777 8.0552 11.2975 8.11469 11.3202C8.17418 11.3428 8.23649 11.3626 8.29598 11.3796L8.46313 11.425C8.57643 11.4533 8.68977 11.476 8.80589 11.4958C8.94578 11.5166 9.08667 11.5298 9.22799 11.5354H9.42628H9.44328L9.61325 11.5156C9.67556 11.5128 9.74072 11.4986 9.81439 11.4986H9.91069L10.1062 11.4703L10.1968 11.4533L10.3611 11.4193H10.3923C11.0881 11.2445 11.7235 10.8842 12.2308 10.3768L15.837 6.77065C17.3859 5.22177 17.3859 2.71054 15.837 1.16166Z" fill="#CBD6E2"/>
</svg>
