<svg width="26" height="25" viewBox="0 0 26 25" fill="none" xmlns="http://www.w3.org/2000/svg">
<g opacity="0.5">
<path d="M13.3196 24.8402C20.1791 24.8402 25.7397 19.2795 25.7397 12.4201C25.7397 5.56066 20.1791 0 13.3196 0C6.4602 0 0.899536 5.56066 0.899536 12.4201C0.899536 19.2795 6.4602 24.8402 13.3196 24.8402Z" fill="#007AB9"/>
<path d="M20.7406 13.4197V18.5402H17.7718V13.7628C17.7718 12.5633 17.3432 11.7441 16.2683 11.7441C15.448 11.7441 14.9607 12.2956 14.7455 12.8296C14.6674 13.0205 14.6472 13.2855 14.6472 13.5532V18.54H11.6782C11.6782 18.54 11.7181 10.4487 11.6782 9.61114H14.6474V10.8764C14.6415 10.8864 14.633 10.8961 14.6277 10.9057H14.6474V10.8764C15.042 10.2694 15.7456 9.40148 17.323 9.40148C19.2762 9.40148 20.7406 10.6776 20.7406 13.4197ZM8.57244 5.30713C7.55688 5.30713 6.89246 5.97376 6.89246 6.84962C6.89246 7.70688 7.53762 8.39278 8.53347 8.39278H8.55273C9.58822 8.39278 10.2321 7.70688 10.2321 6.84962C10.2123 5.97376 9.58822 5.30713 8.57244 5.30713ZM7.06891 18.5402H10.0368V9.61114H7.06891V18.5402Z" fill="#F1F2F2"/>
</g>
</svg>
