<svg width="27" height="27" viewBox="0 0 27 27" fill="none" xmlns="http://www.w3.org/2000/svg">
<path d="M13.5 0C6.05612 0 0 6.05612 0 13.5C0 20.9439 6.05612 27 13.5 27C20.9439 27 27 20.9439 27 13.5C27 6.05612 20.9439 0 13.5 0ZM9.11076 2.61288C8.29702 3.72199 7.69252 5.03466 7.26005 6.32296C6.47394 6.04114 5.7462 5.70407 5.09245 5.31626C6.22134 4.15689 7.587 3.22945 9.11076 2.61288ZM3.94949 6.68155C4.79171 7.207 5.74436 7.65461 6.77869 8.01663C6.43765 9.45807 6.2332 11.0125 6.17846 12.6195H1.79381C1.95792 10.4164 2.73291 8.3807 3.94949 6.68155ZM3.94944 20.3184C2.73291 18.6193 1.95787 16.5836 1.79376 14.3805H6.17836C6.2331 15.9875 6.43755 17.5419 6.77858 18.9833C5.7443 19.3453 4.79176 19.793 3.94944 20.3184ZM5.09251 21.6837C5.74625 21.2959 6.47399 20.9588 7.2601 20.677C7.69252 21.9652 8.29702 23.2778 9.11081 24.3871C7.587 23.7705 6.22134 22.8431 5.09251 21.6837ZM12.6195 25.0766C10.8014 24.4093 9.57572 22.0189 8.94823 20.1776C10.1 19.9035 11.3369 19.7351 12.6195 19.6819V25.0766ZM12.6195 17.9198C11.1745 17.9758 9.77532 18.1681 8.46877 18.4852C8.17219 17.2027 7.99216 15.8176 7.9399 14.3804H12.6195V17.9198ZM12.6195 12.6195H7.9399C7.99211 11.1824 8.17214 9.79731 8.46877 8.5147C9.77532 8.83185 11.1745 9.02417 12.6195 9.08012V12.6195ZM12.6195 7.31811C11.3369 7.26495 10.1001 7.09647 8.94823 6.8224C9.57524 4.98229 10.8008 2.59089 12.6195 1.92343V7.31811ZM23.0506 6.6816C24.2671 8.38065 25.0421 10.4164 25.2062 12.6195H20.8216C20.7669 11.0125 20.5625 9.45812 20.2214 8.01668C21.2557 7.65466 22.2082 7.20705 23.0506 6.6816ZM21.9075 5.31631C21.2537 5.70412 20.526 6.0412 19.7399 6.32301C19.3075 5.03481 18.703 3.72215 17.8892 2.61294C19.413 3.22945 20.7787 4.15689 21.9075 5.31631ZM14.3805 1.92343C16.1986 2.59073 17.4243 4.98108 18.0518 6.8224C16.9 7.09652 15.6631 7.2649 14.3805 7.31811V1.92343ZM14.3805 9.08017C15.8255 9.02422 17.2247 8.8319 18.5312 8.51476C18.8278 9.79731 19.0078 11.1824 19.0601 12.6196H14.3805V9.08017ZM14.3805 14.3745H19.0601C19.0079 15.8117 18.8279 17.2027 18.5312 18.4852C17.2247 18.1681 15.8255 17.9758 14.3805 17.9198V14.3745ZM14.3805 25.0766V19.6819C15.6631 19.735 16.8999 19.9035 18.0518 20.1776C17.4248 22.0177 16.1991 24.4091 14.3805 25.0766ZM17.8892 24.3871C18.703 23.278 19.3075 21.9653 19.74 20.677C20.5261 20.9589 21.2537 21.2959 21.9075 21.6837C20.7787 22.8431 19.413 23.7705 17.8892 24.3871ZM23.0505 20.3184C22.2083 19.793 21.2556 19.3454 20.2213 18.9834C20.5623 17.5419 20.7668 15.9816 20.8215 14.3747H25.2061C25.0421 16.5778 24.2671 18.6193 23.0505 20.3184Z" fill="#3D404F"/>
</svg>
