<svg width="20" height="27" viewBox="0 0 20 27" fill="none" xmlns="http://www.w3.org/2000/svg">
<path d="M16.8831 2.10938H12.9649C12.5359 0.881653 11.3805 0 10.026 0C8.67147 0 7.51603 0.881653 7.08705 2.10938H3.11688C1.39813 2.10938 0 3.52867 0 5.27344V23.8359C0 25.5807 1.39813 27 3.11688 27H16.8864C18.6033 26.9981 20 25.5788 20 23.8359V5.27344C20 3.52867 18.6019 2.10938 16.8831 2.10938ZM8.98701 4.21875V3.16406C8.98701 2.58254 9.45312 2.10938 10.026 2.10938C10.5988 2.10938 11.0649 2.58254 11.0649 3.16406V4.21875H13.1429V6.27539H6.90909V4.21875H8.98701ZM17.9221 23.8359C17.9221 24.4168 17.4564 24.89 16.8853 24.8906H3.11688C2.54403 24.8906 2.07792 24.4175 2.07792 23.8359V5.27344C2.07792 4.69192 2.54403 4.21875 3.11688 4.21875H4.83117V8.38477H15.2208V4.21875H16.8831C17.456 4.21875 17.9221 4.69192 17.9221 5.27344V23.8359ZM13.9848 12.131L15.5215 13.5507L8.86749 20.973L4.4724 16.6575L5.91721 15.1414L8.77252 17.9449L13.9848 12.131Z" fill="#3D404F"/>
</svg>
