<svg width="29" height="29" viewBox="0 0 29 29" fill="none" xmlns="http://www.w3.org/2000/svg">
<path d="M9.66659 7.25004C9.66659 8.58464 8.58451 9.66671 7.24992 9.66671C5.91532 9.66671 4.83325 8.58464 4.83325 7.25004C4.83325 5.91545 5.91532 4.83337 7.24992 4.83337C8.58451 4.83337 9.66659 5.91545 9.66659 7.25004Z" fill="#3D404F"/>
<path d="M25.375 0H3.625C1.62576 0 0 1.62576 0 3.625V25.375C0 27.3742 1.62576 29 3.625 29H25.375C27.3742 29 29 27.3742 29 25.375V3.625C29 1.62576 27.3742 0 25.375 0ZM3.625 2.41667H25.375C26.0414 2.41667 26.5833 2.95859 26.5833 3.625V12.1872L22.6043 8.20817C22.1323 7.73646 21.3677 7.73646 20.8957 8.20817L12.3854 16.7184L9.31266 13.6457C8.84066 13.174 8.07601 13.174 7.604 13.6457L2.41667 18.833V3.625C2.41667 2.95859 2.95859 2.41667 3.625 2.41667ZM25.375 26.5833H3.625C2.95859 26.5833 2.41667 26.0414 2.41667 25.375V22.2503L8.45833 16.2087L15.4582 23.2079C15.6945 23.4448 16.003 23.5625 16.3125 23.5625C16.622 23.5625 16.9305 23.4448 17.1668 23.2085C17.6385 22.7365 17.6385 21.9718 17.1668 21.4998L14.0941 18.4271L21.75 10.7717L26.5833 15.6051V25.375C26.5833 26.0414 26.0414 26.5833 25.375 26.5833Z" fill="#3D404F"/>
</svg>
