<svg width="15" height="17" viewBox="0 0 15 17" fill="none" xmlns="http://www.w3.org/2000/svg">
<path d="M10.66 7.63967C10.66 7.30546 10.3891 7.03455 10.0549 7.03455H3.82216C3.48795 7.03455 3.21704 7.30546 3.21704 7.63967C3.21704 7.97388 3.48795 8.24479 3.82216 8.24479H10.0549C10.3891 8.24479 10.66 7.97388 10.66 7.63967Z" fill="#3D404F"/>
<path d="M3.82216 9.45508C3.48795 9.45508 3.21704 9.72599 3.21704 10.0602C3.21704 10.3944 3.48795 10.6653 3.82216 10.6653H7.60754C7.94174 10.6653 8.21266 10.3944 8.21266 10.0602C8.21266 9.72599 7.94174 9.45508 7.60754 9.45508H3.82216Z" fill="#3D404F"/>
<path d="M5.24434 15.2642H3.22054C2.55321 15.2642 2.01029 14.7212 2.01029 14.0539V3.40377C2.01029 2.73644 2.55321 2.19352 3.22054 2.19352H10.6602C11.3275 2.19352 11.8704 2.73644 11.8704 3.40377V7.12527C11.8704 7.45948 12.1413 7.73039 12.4756 7.73039C12.8098 7.73039 13.0807 7.45948 13.0807 7.12527V3.40377C13.0807 2.06911 11.9948 0.983276 10.6602 0.983276H3.22054C1.88588 0.983276 0.800049 2.06911 0.800049 3.40377V14.0539C0.800049 15.3886 1.88588 16.4744 3.22054 16.4744H5.24434C5.57855 16.4744 5.84946 16.2035 5.84946 15.8693C5.84946 15.5351 5.57855 15.2642 5.24434 15.2642Z" fill="#3D404F"/>
<path d="M14.1526 9.74468C13.4448 9.03686 12.2931 9.03683 11.5858 9.74419L8.26354 13.0591C8.19299 13.1295 8.14095 13.2162 8.11196 13.3115L7.38845 15.6935C7.3243 15.9046 7.38019 16.1339 7.53431 16.2919C7.64977 16.4102 7.80662 16.4745 7.96749 16.4745C8.02131 16.4745 8.07565 16.4673 8.12899 16.4525L10.5714 15.7759C10.6719 15.7481 10.7635 15.6948 10.8374 15.621L14.1526 12.312C14.8604 11.6042 14.8604 10.4525 14.1526 9.74468ZM10.095 14.6521L8.86624 14.9925L9.22584 13.8086L11.4675 11.5719L12.3234 12.4278L10.095 14.6521ZM13.2973 11.4559L13.18 11.5729L12.3242 10.7171L12.4411 10.6005C12.677 10.3646 13.0609 10.3646 13.2969 10.6005C13.5328 10.8364 13.5328 11.2203 13.2973 11.4559Z" fill="#3D404F"/>
<path d="M10.0549 4.61401H3.82216C3.48795 4.61401 3.21704 4.88493 3.21704 5.21914C3.21704 5.55335 3.48795 5.82426 3.82216 5.82426H10.0549C10.3891 5.82426 10.66 5.55335 10.66 5.21914C10.66 4.88493 10.3891 4.61401 10.0549 4.61401Z" fill="#3D404F"/>
</svg>
