<svg width="22" height="18" viewBox="0 0 22 18" fill="none" xmlns="http://www.w3.org/2000/svg">
<path d="M20.9862 8.34848L12.9077 0.269985C12.5477 -0.0899952 11.9647 -0.0899952 11.6047 0.269985C11.2447 0.629676 11.2447 1.2133 11.6047 1.57299L19.0317 8.99998L11.6047 16.427C11.2448 16.7867 11.2448 17.3703 11.6047 17.73C11.7848 17.91 12.0204 18 12.2562 18C12.4921 18 12.7281 17.91 12.9077 17.73L20.9862 9.65149C21.3462 9.2918 21.3462 8.70817 20.9862 8.34848Z" fill="#F79824"/>
<path d="M9.65185 8.34848L1.57336 0.269985C1.21367 -0.0899952 0.630042 -0.0899952 0.270352 0.269985C-0.0896289 0.629676 -0.0896289 1.2133 0.270352 1.57299L7.69705 8.99998L0.270393 16.427C-0.0895874 16.7867 -0.0895874 17.3703 0.270393 17.73C0.450072 17.91 0.686005 18 0.921896 18C1.15779 18 1.39372 17.91 1.5734 17.73L9.65189 9.65149C10.0118 9.2918 10.0118 8.70817 9.65185 8.34848Z" fill="#F79824"/>
</svg>
