<svg width="23" height="33" viewBox="0 0 23 33" fill="none" xmlns="http://www.w3.org/2000/svg">
<path d="M11.9062 0.00670959C5.36869 -0.213606 0 5.02026 0 11.508C0 18.8708 7.06578 24.2142 11.0261 31.8988C11.2272 32.2889 11.7889 32.2894 11.9906 31.8993C15.5734 24.9848 21.6967 20.3482 22.8315 13.6868C24.0065 6.79357 18.8947 0.242319 11.9062 0.00670959ZM11.5078 17.5358C8.17877 17.5358 5.47995 14.837 5.47995 11.508C5.47995 8.17896 8.17883 5.48007 11.5078 5.48007C14.8369 5.48007 17.5358 8.17896 17.5358 11.508C17.5358 14.837 14.8369 17.5358 11.5078 17.5358Z" fill="#3D404F"/>
</svg>
