<svg width="18" height="16" viewBox="0 0 18 16" fill="none" xmlns="http://www.w3.org/2000/svg">
<path d="M16.6867 1.56213C15.7989 0.554766 14.5673 0 13.2188 0C11.3221 0 10.1214 1.13273 9.44807 2.08301C9.27337 2.32959 9.12477 2.57685 9 2.80951C8.87523 2.57685 8.72666 2.32959 8.55193 2.08301C7.87862 1.13273 6.67786 0 4.78125 0C3.43273 0 2.2011 0.554801 1.31326 1.56217C0.466418 2.52313 0 3.81013 0 5.18607C0 6.68384 0.584754 8.0769 1.84025 9.57006C2.96234 10.9046 4.57661 12.2802 6.4459 13.8731C7.14245 14.4667 7.86277 15.0805 8.62963 15.7514L8.65266 15.7716C8.75208 15.8587 8.87604 15.9022 9 15.9022C9.12396 15.9022 9.24792 15.8586 9.34734 15.7716L9.37037 15.7514C10.1372 15.0805 10.8576 14.4667 11.5542 13.873C13.4234 12.2802 15.0377 10.9046 16.1597 9.57006C17.4152 8.07687 18 6.68384 18 5.18607C18 3.81013 17.5336 2.52313 16.6867 1.56213ZM10.8701 13.0703C10.2696 13.582 9.65162 14.1086 9 14.6751C8.34841 14.1087 7.7304 13.582 7.12983 13.0703C3.4715 9.95284 1.05469 7.89335 1.05469 5.18607C1.05469 4.06705 1.42752 3.02769 2.10452 2.25949C2.7893 1.48257 3.73989 1.05469 4.78125 1.05469C6.22719 1.05469 7.16189 1.94548 7.69134 2.69276C8.16627 3.36298 8.41409 4.03861 8.4986 4.29796C8.5693 4.51505 8.7717 4.66196 9 4.66196C9.2283 4.66196 9.4307 4.51505 9.5014 4.29796C9.58591 4.03861 9.83373 3.36298 10.3087 2.69272C10.8381 1.94548 11.7728 1.05469 13.2188 1.05469C14.2601 1.05469 15.2107 1.48257 15.8954 2.25949C16.5725 3.02769 16.9453 4.06705 16.9453 5.18607C16.9453 7.89335 14.5285 9.95284 10.8701 13.0703Z" fill="#CED4DA"/>
</svg>
