<svg width="17" height="17" viewBox="0 0 17 17" fill="none" xmlns="http://www.w3.org/2000/svg">
<path d="M16.7922 15.7909L11.9578 10.9565C12.8943 9.7998 13.4581 8.33 13.4581 6.72918C13.4581 3.01893 10.4392 0 6.7289 0C3.01865 0 -0.000244141 3.01889 -0.000244141 6.72914C-0.000244141 10.4394 3.01868 13.4583 6.72893 13.4583C8.32976 13.4583 9.79956 12.8945 10.9563 11.9581L15.7906 16.7924C15.9288 16.9306 16.1101 17 16.2914 17C16.4728 17 16.6541 16.9306 16.7922 16.7924C17.0692 16.5155 17.0692 16.0678 16.7922 15.7909ZM6.72893 12.0416C3.79926 12.0416 1.41643 9.65882 1.41643 6.72914C1.41643 3.79947 3.79926 1.41664 6.72893 1.41664C9.65861 1.41664 12.0414 3.79947 12.0414 6.72914C12.0414 9.65882 9.65858 12.0416 6.72893 12.0416Z" fill="#9A9DA6"/>
</svg>
