<svg width="17" height="17" viewBox="0 0 17 17" fill="none" xmlns="http://www.w3.org/2000/svg">
<path d="M16.9997 7.43747V0L14.5029 2.49685C12.9675 0.956248 10.8479 0 8.49972 0C3.80349 0 0.010376 3.80373 0.010376 8.5C0.010376 13.1963 3.80349 17 8.49972 17C12.4575 17 15.7725 14.2906 16.7128 10.625H14.5029C13.6263 13.1006 11.2782 14.875 8.49977 14.875C4.97759 14.875 2.12478 12.0222 2.12478 8.5C2.12478 4.97782 4.97759 2.12501 8.49977 2.12501C10.2582 2.12501 11.836 2.85814 12.9888 4.01096L9.56225 7.43752H16.9997V7.43747Z" fill="#9A9DA6"/>
</svg>
