<svg width="32" height="31" viewBox="0 0 32 31" fill="none" xmlns="http://www.w3.org/2000/svg">
<path d="M6.96058 25.3351L7.43023 25.3356C7.88197 25.3361 8.24859 24.9703 8.24911 24.5185L8.27126 5.30318C8.27158 5.032 8.16416 4.77181 7.97263 4.57984C7.7811 4.38787 7.52116 4.27985 7.24998 4.27954L7.18934 4.27946C6.62462 4.27879 6.16628 4.73603 6.1656 5.30075L6.14358 24.5161C6.14306 24.9679 6.50884 25.3345 6.96058 25.3351Z" fill="black"/>
<path d="M27.989 17.8051C26.6311 16.5746 25.4525 15.1597 24.4876 13.6018C24.4064 13.4711 24.4068 13.3056 24.4885 13.1753C25.8164 10.9197 26.9899 8.57679 28.0011 6.16262C28.1668 5.76036 27.9769 5.57505 27.6602 5.79414C21.4611 10.0421 15.2738 1.22199 9.07791 4.92532C9.10514 5.04887 9.11841 5.17508 9.11748 5.3016L9.10112 17.7744C15.288 14.1346 21.4582 22.9059 27.6457 18.6679C27.9624 18.4488 28.1538 17.9393 27.989 17.8051Z" fill="#F89722"/>
</svg>
