<svg width="35" height="35" viewBox="0 0 35 35" fill="none" xmlns="http://www.w3.org/2000/svg">
<circle cx="17.5" cy="17.5" r="17.5" fill="#BDBFC7"/>
<path d="M6 23.4861L9.24249 21.2175L12.8716 26.4047L9.6291 28.6732L6 23.4861Z" fill="#818288"/>
<path d="M27.9728 21.2882C27.9978 21.1554 27.984 21.0186 27.9327 20.8929C27.8605 20.7016 27.712 20.5456 27.5198 20.4593C27.3277 20.3729 27.1077 20.3632 26.9081 20.4324L22.9216 21.8255C22.8215 22.1416 22.6181 22.4186 22.3413 22.6155C22.0646 22.8125 21.7292 22.9189 21.3846 22.9192C21.2892 22.9198 21.1939 22.9108 21.1004 22.8924L16.7777 22.1594L16.9138 21.4072L21.2405 22.1402C21.4366 22.1744 21.6389 22.1376 21.8082 22.0369C21.9776 21.9362 22.1019 21.7788 22.1571 21.5952C22.1907 21.4909 22.1976 21.3803 22.1771 21.2728C22.1603 21.1545 22.1151 21.0415 22.045 20.9428C21.9215 20.7757 21.7348 20.6614 21.5247 20.6243L17.5062 19.945C16.3244 19.75 15.1115 19.8223 13.9639 20.1561L13.8919 20.1752C13.1325 20.3971 12.415 20.7339 11.7666 21.1731L10.5098 22.0135L13.0354 25.4752C13.9809 24.8525 15.1445 24.6125 16.2734 24.8074L16.9899 24.9225C17.7517 25.0527 18.5359 24.9879 19.2633 24.7345L27.4564 21.8754C27.5887 21.8296 27.7061 21.7512 27.7967 21.6482C27.8874 21.5451 27.9481 21.4209 27.9728 21.2882V21.2882Z" fill="#818288"/>
<path d="M26.8575 9.69114V8.42279C26.8575 8.31066 26.8179 8.20312 26.7474 8.12383C26.6769 8.04454 26.5814 8 26.4817 8H22.3478V9.69114H26.8575Z" fill="#818288"/>
<path d="M20.0412 10.4767C20.1299 10.4029 20.2498 10.3615 20.3747 10.3615C20.4997 10.3615 20.6196 10.4029 20.7083 10.4767L21.784 11.3823V8H18.9655V11.3823L20.0412 10.4767Z" fill="#818288"/>
<path d="M13.3282 8.42279V9.69114H18.4017V8H13.751C13.6389 8 13.5314 8.04454 13.4521 8.12383C13.3728 8.20312 13.3282 8.31066 13.3282 8.42279Z" fill="#818288"/>
<path d="M18.35 12.6187C18.2769 12.5894 18.2143 12.5386 18.1703 12.4731C18.1263 12.4076 18.1029 12.3304 18.1032 12.2514V10.2549H13.3282V19.1313C13.4158 19.0993 13.5033 19.0634 13.5949 19.0394L13.6665 19.0155C14.9223 18.6339 16.2501 18.5546 17.5422 18.7839L21.5412 19.4906C21.8132 19.5382 22.0674 19.6582 22.2774 19.838H25.0747L26.4834 19.3229C26.6042 19.2807 26.7299 19.2539 26.8574 19.2431V10.2549H22.0824V12.2514C22.0827 12.3304 22.0593 12.4076 22.0154 12.4731C21.9714 12.5386 21.9088 12.5894 21.8357 12.6187C21.7885 12.6411 21.7367 12.6521 21.6845 12.6507C21.5788 12.651 21.4772 12.6094 21.402 12.5349L20.0928 11.2172L18.7837 12.5349C18.7277 12.5903 18.6567 12.6278 18.5795 12.6427C18.5023 12.6577 18.4224 12.6493 18.35 12.6187V12.6187Z" fill="#818288"/>
</svg>
