<svg width="28" height="28" viewBox="0 0 28 28" fill="none" xmlns="http://www.w3.org/2000/svg">
<path d="M10.5953 20.9758V26.2691C10.5953 26.6389 10.8327 26.9665 11.1842 27.0829C11.2721 27.1114 11.3623 27.1251 11.4513 27.1251C11.7184 27.1251 11.9763 26.9996 12.1406 26.7759L15.237 22.5622L10.5953 20.9758Z" fill="#3D404F"/>
<path d="M27.6404 1.03386C27.3779 0.847832 27.0332 0.822724 26.7479 0.972233L1.06888 14.3824C0.765294 14.541 0.586112 14.8652 0.61122 15.2064C0.63747 15.5488 0.864587 15.841 1.18757 15.9517L8.32634 18.3917L23.5295 5.39245L11.765 19.5661L23.7292 23.6554C23.8182 23.685 23.9118 23.701 24.0054 23.701C24.1606 23.701 24.3147 23.6588 24.4505 23.5766C24.6673 23.4442 24.8146 23.2217 24.8522 22.9717L27.9908 1.85787C28.0376 1.53831 27.9029 1.22103 27.6404 1.03386Z" fill="#3D404F"/>
</svg>
