<svg width="25" height="25" viewBox="0 0 25 25" fill="none" xmlns="http://www.w3.org/2000/svg">
<path d="M21.875 3.125H20.8334V1.0416C20.8334 0.466728 20.3667 0 19.7916 0H18.75C18.1749 0 17.7084 0.466728 17.7084 1.0416V3.125H7.2916V1.0416C7.2916 0.466728 6.82507 0 6.25 0H5.2084C4.63333 0 4.1666 0.466728 4.1666 1.0416V3.125H3.125C1.40209 3.125 0 4.52709 0 6.25V21.875C0 23.5979 1.40209 25 3.125 25H21.875C23.5979 25 25 23.5979 25 21.875V6.25C25 4.52709 23.5979 3.125 21.875 3.125ZM22.9166 21.875C22.9166 22.4489 22.4489 22.9166 21.875 22.9166H3.125C2.55108 22.9166 2.0834 22.4489 2.0834 21.875V10.4584H22.9166V21.875Z" fill="#3D404F"/>
</svg>
