<svg width="106" height="102" viewBox="0 0 106 102" fill="none" xmlns="http://www.w3.org/2000/svg">
<path d="M23.7251 101.582C22.5637 101.582 21.4105 101.22 20.4262 100.508C18.5928 99.1794 17.7364 96.8955 18.2353 94.6917L25.0546 64.6528L1.92798 44.3713C0.22802 42.8873 -0.421395 40.5371 0.276545 38.3867C0.974484 36.2403 2.8734 34.7207 5.12169 34.5128L35.721 31.7348L47.8189 3.42338C48.711 1.34331 50.7425 0 52.9997 0C55.2569 0 57.2884 1.34331 58.1805 3.41853L70.2784 31.7348L100.873 34.5128C103.126 34.7158 105.025 36.2403 105.723 38.3867C106.421 40.5331 105.775 42.8873 104.075 44.3713L80.9488 64.6488L87.7681 94.6869C88.2679 96.8955 87.4106 99.1794 85.578 100.504C83.7495 101.829 81.3111 101.931 79.3855 100.773L52.9997 85.0055L26.6139 100.782C25.7218 101.312 24.7279 101.582 23.7251 101.582V101.582ZM52.9997 78.2129C54.0025 78.2129 54.9957 78.4822 55.8885 79.0119L80.7903 93.9056L74.3544 65.5538C73.895 63.536 74.58 61.4292 76.1393 60.0641L97.976 40.9132L69.0855 38.2896C67.0054 38.0996 65.2165 36.7919 64.4037 34.8751L52.9997 8.15773L41.582 34.8792C40.7781 36.783 38.9892 38.0907 36.9139 38.2807L8.01939 40.9043L29.8553 60.0552C31.4194 61.4244 32.1036 63.5271 31.6402 65.5497L25.2091 93.9008L50.1109 79.0119C51.0029 78.4822 51.9969 78.2129 52.9997 78.2129V78.2129ZM35.4873 32.2823C35.4873 32.2823 35.4873 32.2872 35.4825 32.2912L35.4873 32.2823ZM70.5032 32.2694L70.508 32.2783C70.508 32.2734 70.508 32.2734 70.5032 32.2694Z" fill="#454756"/>
</svg>
