<svg width="106" height="103" viewBox="0 0 106 103" fill="none" xmlns="http://www.w3.org/2000/svg">
<path d="M105.723 39.3254C105.03 37.1791 103.126 35.6547 100.873 35.4517L70.279 32.6737L58.1812 4.35803C57.2891 2.28286 55.2576 0.939575 53.0004 0.939575C50.7432 0.939575 48.7117 2.28286 47.8197 4.36288L35.7218 32.6737L5.12251 35.4517C2.87423 35.6595 0.975321 37.1791 0.277383 39.3254C-0.420556 41.4718 0.224006 43.826 1.92478 45.31L25.0505 65.591L18.2313 95.6293C17.7323 97.8379 18.5896 100.121 20.4222 101.446C21.4072 102.157 22.5596 102.52 23.7218 102.52C24.7238 102.52 25.7178 102.249 26.6098 101.716L53.0004 85.9433L79.3814 101.716C81.3118 102.877 83.7453 102.771 85.5738 101.446C87.4072 100.117 88.2637 97.8331 87.7647 95.6293L80.9455 65.591L104.071 45.314C105.772 43.826 106.421 41.4758 105.723 39.3254V39.3254Z" fill="#F79824"/>
</svg>
