<svg width="44" height="44" viewBox="0 0 44 44" fill="none" xmlns="http://www.w3.org/2000/svg">
<path d="M39.3701 11.5774C38.4588 12.0183 38.0775 13.1149 38.5184 14.0257C39.7228 16.5139 40.3333 19.1958 40.3333 22C40.3333 32.1088 32.1088 40.3333 22 40.3333C11.8912 40.3333 3.66667 32.1088 3.66667 22C3.66667 11.8912 11.8912 3.66667 22 3.66667C26.189 3.66667 30.1242 5.03451 33.3813 7.62203C34.1713 8.25269 35.3266 8.12065 35.9572 7.32796C36.5879 6.53573 36.4559 5.38184 35.6627 4.75208C31.8067 1.68742 26.9544 0 22 0C9.86983 0 0 9.86983 0 22C0 34.1302 9.86983 44 22 44C34.1302 44 44 34.1302 44 22C44 18.6386 43.266 15.4173 41.8184 12.4292C41.3785 11.5161 40.2783 11.1356 39.3701 11.5774Z" fill="#E06860"/>
<path d="M22.0001 7.33337C20.9881 7.33337 20.1667 8.1547 20.1667 9.16671V22C20.1667 23.012 20.9881 23.8334 22.0001 23.8334H31.1667C32.1788 23.8334 33.0001 23.012 33.0001 22C33.0001 20.988 32.1788 20.1667 31.1667 20.1667H23.8334V9.16671C23.8334 8.1547 23.0121 7.33337 22.0001 7.33337Z" fill="#E06860"/>
</svg>
