<svg width="26" height="26" viewBox="0 0 26 26" fill="none" xmlns="http://www.w3.org/2000/svg">
<path d="M3.85938 12.1875C4.47391 12.1875 5.03012 11.9409 5.44113 11.545L7.69594 12.6723C7.68463 12.7641 7.66797 12.8544 7.66797 12.9492C7.66797 14.2092 8.69312 15.2344 9.95312 15.2344C11.2131 15.2344 12.2383 14.2092 12.2383 12.9492C12.2383 12.5975 12.1518 12.2682 12.0092 11.9703L15.0679 8.91151C15.3659 9.05414 15.6952 9.14062 16.0469 9.14062C17.3069 9.14062 18.332 8.11548 18.332 6.85547C18.332 6.61823 18.2854 6.39388 18.218 6.17865L20.8757 4.18588C21.2383 4.42809 21.6729 4.57031 22.1406 4.57031C23.4006 4.57031 24.4258 3.54517 24.4258 2.28516C24.4258 1.02515 23.4006 0 22.1406 0C20.8806 0 19.8555 1.02515 19.8555 2.28516C19.8555 2.5224 19.9021 2.74675 19.9695 2.96198L17.3118 4.95474C16.9492 4.71254 16.5146 4.57031 16.0469 4.57031C14.7869 4.57031 13.7617 5.59546 13.7617 6.85547C13.7617 7.20717 13.8482 7.53645 13.9908 7.8344L10.9321 10.8932C10.6341 10.7505 10.3048 10.6641 9.95312 10.6641C9.33859 10.6641 8.78238 10.9106 8.37137 11.3066L6.11656 10.1793C6.12787 10.0874 6.14453 9.99716 6.14453 9.90234C6.14453 8.64233 5.11938 7.61719 3.85938 7.61719C2.59937 7.61719 1.57422 8.64233 1.57422 9.90234C1.57422 11.1624 2.59937 12.1875 3.85938 12.1875Z" fill="#3D404F"/>
<path d="M25.2383 24.4766H24.4258V8.37891C24.4258 7.95798 24.085 7.61719 23.6641 7.61719H20.6172C20.1963 7.61719 19.8555 7.95798 19.8555 8.37891V24.4766H18.332V12.9492C18.332 12.5283 17.9912 12.1875 17.5703 12.1875H14.5234C14.1025 12.1875 13.7617 12.5283 13.7617 12.9492V24.4766H12.2383V19.043C12.2383 18.622 11.8975 18.2812 11.4766 18.2812H8.42969C8.00876 18.2812 7.66797 18.622 7.66797 19.043V24.4766H6.14453V15.9961C6.14453 15.5752 5.80374 15.2344 5.38281 15.2344H2.33594C1.91501 15.2344 1.57422 15.5752 1.57422 15.9961V24.4766H0.761719C0.34079 24.4766 0 24.8174 0 25.2383C0 25.6592 0.34079 26 0.761719 26H25.2383C25.6592 26 26 25.6592 26 25.2383C26 24.8174 25.6592 24.4766 25.2383 24.4766Z" fill="#3D404F"/>
</svg>
