<svg width="18" height="12" viewBox="0 0 18 12" fill="none" xmlns="http://www.w3.org/2000/svg">
<path d="M10.4344 9.10318C10.3782 9.03442 10.3001 9.00001 10.2002 9.00001H4.80006V5.39992H6.59995C6.76243 5.39992 6.90313 5.34052 7.0218 5.22175C7.14054 5.10301 7.19991 4.96241 7.19991 4.7998C7.19991 4.6499 7.15292 4.52168 7.05927 4.41549L4.05937 0.815433C3.9406 0.678045 3.78748 0.609253 3.59999 0.609253C3.41243 0.609253 3.25937 0.677947 3.14067 0.815433L0.140704 4.41549C0.0467919 4.52168 0 4.6499 0 4.7998C0 4.96241 0.0594667 5.10301 0.178105 5.22175C0.296874 5.34052 0.437578 5.39992 0.600053 5.39992H2.40008V9.30007V10.8V10.903V11.025C2.40008 11.0438 2.40317 11.0798 2.4094 11.133C2.41568 11.1861 2.42513 11.2221 2.43761 11.2407C2.45002 11.2596 2.46726 11.2846 2.48913 11.3158C2.51087 11.347 2.53908 11.3691 2.57336 11.3814C2.60774 11.3938 2.65 11.4001 2.70004 11.4001H11.7001C11.7812 11.4001 11.8516 11.3704 11.9109 11.311C11.9702 11.2517 11.9999 11.1814 11.9999 11.1002C11.9999 11.0375 11.9781 10.9722 11.9344 10.9031L10.4344 9.10318Z" fill="#CED4DA"/>
<path d="M17.8219 6.77828C17.7032 6.65974 17.5625 6.60017 17.4 6.60017H15.6V2.70016V1.20009V1.09699V0.975131C15.6 0.956349 15.5969 0.920459 15.5906 0.867198C15.5843 0.814036 15.5749 0.778146 15.5625 0.759363C15.5501 0.740614 15.5329 0.71556 15.511 0.684365C15.4891 0.653203 15.461 0.631269 15.4266 0.618725C15.3922 0.606313 15.3502 0.599976 15.3 0.599976H6.29995C6.21871 0.599976 6.14854 0.629692 6.08904 0.689028C6.02977 0.748429 6.00012 0.818764 6.00012 0.899936C6.00012 0.968663 6.02186 1.03115 6.0657 1.08743L7.56563 2.88746C7.62188 2.96246 7.70003 2.99996 7.79998 2.99996H13.2V6.59994H11.4001C11.2376 6.59994 11.0969 6.65938 10.9782 6.77792C10.8595 6.89682 10.8 7.03762 10.8 7.2C10.8 7.34999 10.847 7.47799 10.9408 7.58441L13.9408 11.1843C14.0657 11.3282 14.2188 11.4 14.4001 11.4C14.5812 11.4 14.7342 11.3282 14.8593 11.1843L17.8593 7.58441C17.9529 7.47799 17.9999 7.34999 17.9999 7.2C18.0001 7.03772 17.9405 6.89705 17.8219 6.77828Z" fill="#CED4DA"/>
</svg>
