<svg width="21" height="21" viewBox="0 0 21 21" fill="none" xmlns="http://www.w3.org/2000/svg">
    <path d="M2.18749 8.75C0.98175 8.75 0 9.73175 0 10.9375V17.9375C0 19.1432 0.98175 20.125 2.18749 20.125H4.81249C5.30512 20.125 5.75835 19.9587 6.12499 19.6822V8.75H2.18749Z" fill="orange"/>
    <path d="M21 12.0312C21 11.5054 20.7917 11.0154 20.4304 10.654C20.839 10.2069 21.0472 9.60746 20.9903 8.98361C20.888 7.87147 19.8861 6.99997 18.7084 6.99997H13.3035C13.5712 6.18708 14 4.69699 14 3.49999C14 1.60211 12.3874 0 11.375 0C10.4659 0 9.81658 0.511875 9.78861 0.532875C9.68537 0.616014 9.625 0.742014 9.625 0.874986V3.8421L7.105 9.30124L7 9.3546V18.7329C7.71224 19.0689 8.61347 19.25 9.18749 19.25H17.2191C18.172 19.25 19.0059 18.6077 19.2019 17.7214C19.3025 17.2655 19.2439 16.8061 19.0435 16.4071C19.6901 16.0816 20.125 15.4157 20.125 14.6562C20.125 14.3465 20.0541 14.0499 19.9194 13.7812C20.566 13.4558 21 12.7899 21 12.0312Z" fill="orange"/>
</svg>