<svg width="15" height="16" viewBox="0 0 15 16" fill="none" xmlns="http://www.w3.org/2000/svg">
<path d="M7.63976 6.54269H11.4562C11.5358 6.54269 11.6011 6.51718 11.6521 6.466C11.7032 6.41489 11.7288 6.34963 11.7288 6.27006V4.63445C11.7288 4.55487 11.7032 4.48961 11.6521 4.4385C11.6011 4.38745 11.5358 4.36182 11.4562 4.36182H7.63976C7.56021 4.36182 7.49495 4.38733 7.44381 4.4385C7.39279 4.48961 7.36719 4.55487 7.36719 4.63445V6.27006C7.36719 6.34963 7.3927 6.41489 7.44381 6.466C7.49495 6.51709 7.56021 6.54269 7.63976 6.54269Z" fill="#3D404F"/>
<path d="M7.63976 2.18084H9.82054C9.90009 2.18084 9.96543 2.15533 10.0164 2.10422C10.0676 2.05307 10.0928 1.98782 10.0928 1.90827V0.272601C10.0928 0.193142 10.0676 0.127797 10.0164 0.0766542C9.96543 0.025631 9.90009 0 9.82054 0H7.63976C7.56021 0 7.49495 0.0255116 7.44381 0.0766244C7.39282 0.127797 7.36719 0.193142 7.36719 0.272571V1.90824C7.36719 1.98779 7.3927 2.05304 7.44381 2.10419C7.49498 2.15521 7.56021 2.18084 7.63976 2.18084Z" fill="#3D404F"/>
<path d="M5.73141 11.9947H4.09577V0.272601C4.09577 0.193142 4.07029 0.127707 4.01914 0.0766542C3.968 0.025631 3.90275 0 3.82317 0H2.1875C2.10804 0 2.04261 0.0255116 1.99155 0.0766244C1.94056 0.127797 1.91493 0.193142 1.91493 0.272571V11.9946H0.279261C0.154418 11.9946 0.0692 12.0514 0.0237267 12.165C-0.0217765 12.273 -0.00178496 12.3723 0.0833134 12.4632L2.80936 15.1894C2.87184 15.2403 2.93709 15.2658 3.0053 15.2658C3.07912 15.2658 3.1445 15.2403 3.20125 15.1894L5.91879 12.4718C5.97566 12.4038 6.00401 12.3354 6.00401 12.2676C6.00401 12.1877 5.97838 12.1226 5.92738 12.0711C5.87627 12.0202 5.81101 11.9947 5.73141 11.9947Z" fill="#3D404F"/>
<path d="M14.9235 13.1619C14.8723 13.1106 14.8071 13.0851 14.7275 13.0851H7.63976C7.56021 13.0851 7.49495 13.1106 7.44381 13.1619C7.39282 13.2129 7.36719 13.2783 7.36719 13.3577V14.9933C7.36719 15.073 7.3927 15.1381 7.44381 15.1894C7.49498 15.2404 7.56021 15.2659 7.63976 15.2659H14.7275C14.807 15.2659 14.8723 15.2404 14.9234 15.1894C14.9745 15.1381 15 15.073 15 14.9933V13.3577C15.0001 13.2783 14.9745 13.2129 14.9235 13.1619Z" fill="#3D404F"/>
<path d="M7.63976 10.9042H13.092C13.1714 10.9042 13.2368 10.8787 13.288 10.8277C13.339 10.7766 13.3645 10.7113 13.3645 10.6318V8.99603C13.3645 8.9166 13.339 8.85122 13.288 8.8002C13.2367 8.74914 13.1714 8.72363 13.092 8.72363H7.63976C7.56021 8.72363 7.49495 8.74914 7.44381 8.8002C7.39279 8.85125 7.36719 8.9166 7.36719 8.99603V10.6318C7.36719 10.7113 7.3927 10.7766 7.44381 10.8277C7.49495 10.8787 7.56021 10.9042 7.63976 10.9042Z" fill="#3D404F"/>
</svg>
