<svg width="29" height="31" viewBox="0 0 29 31" fill="none" xmlns="http://www.w3.org/2000/svg">
<rect x="0.5" y="0.5" width="28" height="28" rx="2.5" fill="white" stroke="#CED4DA"/>
<path d="M21.3783 22.8251L21.3984 10.5293C21.3958 10.0337 21.2086 9.53791 20.8333 9.16139L16.0568 4.36921C15.3027 3.61271 14.0793 3.61071 13.3228 4.36475L8.53063 9.14131C8.15068 9.52003 7.9619 10.0153 7.96452 10.5108L7.94444 22.8135C7.94364 23.3056 8.1308 23.8014 8.50609 24.178C8.88138 24.5545 9.38003 24.7467 9.87214 24.7475L19.4409 24.7631C19.9364 24.7605 20.4322 24.5734 20.8088 24.198C21.1887 23.8193 21.3775 23.3241 21.3783 22.8251ZM13.6573 8.80796C13.0909 8.23973 13.0924 7.32388 13.6607 6.75751C14.2289 6.19113 15.1447 6.19262 15.7111 6.76085C16.2775 7.32908 16.276 8.24493 15.7078 8.8113C15.1395 9.37768 14.2237 9.37615 13.6573 8.80796Z" fill="#3D404F"/>
</svg>
