<svg width="15" height="19" viewBox="0 0 15 19" fill="none" xmlns="http://www.w3.org/2000/svg">
<path d="M12.7385 3.11408H10.8199C10.564 2.82977 10.2352 2.61223 9.85747 2.50356C9.53926 2.41209 9.29437 2.1672 9.2029 1.84899C8.95391 0.983302 8.15608 0.349976 7.21032 0.349976C6.26456 0.349976 5.46677 0.983302 5.21774 1.84894C5.12614 2.16751 4.88065 2.41209 4.56209 2.50386C4.1847 2.61261 3.85629 2.82994 3.60061 3.11408H1.6821C0.918821 3.11408 0.300049 3.73286 0.300049 4.49614V16.9346C0.300049 17.6979 0.918777 18.3166 1.68206 18.3166H12.7385C13.5018 18.3166 14.1205 17.6979 14.1205 16.9346V4.49614C14.1206 3.73286 13.5018 3.11408 12.7385 3.11408ZM7.21918 1.73203C7.60084 1.73203 7.9102 2.04139 7.9102 2.42306C7.9102 2.80468 7.60084 3.11408 7.21918 3.11408C6.83751 3.11408 6.52815 2.80468 6.52815 2.42306C6.52815 2.04139 6.83751 1.73203 7.21918 1.73203ZM12.7385 16.9346H1.6821V4.49614H3.06416V5.87819H11.3565V4.49614H12.7385V16.9346Z" fill="#33475B"/>
<path d="M9.83852 8.49658L5.99594 12.3393L4.39232 10.7696L3.41504 11.7476L5.99594 14.2937L10.8158 9.47391L9.83852 8.49658Z" fill="#33475B"/>
</svg>
