<svg width="12" height="14" viewBox="0 0 12 14" fill="none" xmlns="http://www.w3.org/2000/svg">
<path d="M11.6841 3.12926L11.375 2.20267C11.2573 1.84976 10.9282 1.61264 10.5563 1.61264H7.9583V0.7668C7.9583 0.34404 7.61458 0 7.19192 0H4.8128C4.39026 0 4.04643 0.34404 4.04643 0.7668V1.61264H1.44856C1.07654 1.61264 0.747452 1.84976 0.629745 2.20267L0.320633 3.12926C0.250244 3.34021 0.285919 3.57381 0.415909 3.75421C0.545898 3.93462 0.75621 4.04239 0.978592 4.04239H1.3017L2.01285 12.8363C2.06572 13.4888 2.61943 14 3.27365 14H8.87538C9.52949 14 10.0833 13.4888 10.1361 12.8362L10.8472 4.04239H11.0261C11.2485 4.04239 11.4588 3.93462 11.5888 3.75432C11.7188 3.57391 11.7545 3.34021 11.6841 3.12926V3.12926ZM4.86674 0.820312H7.13798V1.61264H4.86674V0.820312ZM9.31843 12.7701C9.29985 12.9998 9.10524 13.1797 8.87538 13.1797H3.27365C3.04379 13.1797 2.84918 12.9998 2.8306 12.7701L2.12468 4.04239H10.0242L9.31843 12.7701ZM1.15451 3.22208L1.40797 2.46222C1.41374 2.4447 1.43008 2.43295 1.44856 2.43295H10.5563C10.5748 2.43295 10.591 2.4447 10.5969 2.46222L10.8503 3.22208H1.15451Z" fill="#9A9DA6"/>
<path d="M8.01016 12.741C8.01742 12.7414 8.02458 12.7415 8.03184 12.7415C8.24856 12.7415 8.42972 12.5717 8.44104 12.3527L8.8262 4.95904C8.83795 4.73282 8.66406 4.53981 8.43794 4.52806C8.21118 4.51599 8.01881 4.69009 8.00696 4.91632L7.6219 12.31C7.61015 12.5363 7.78393 12.7293 8.01016 12.741V12.741Z" fill="#9A9DA6"/>
<path d="M3.58191 12.3538C3.59388 12.5724 3.77481 12.7416 3.99111 12.7416C3.99858 12.7416 4.00628 12.7414 4.01386 12.741C4.23998 12.7287 4.41333 12.5353 4.40105 12.3091L3.99762 4.9154C3.98534 4.68918 3.79201 4.51582 3.56578 4.52821C3.33966 4.5405 3.16631 4.73383 3.17859 4.96005L3.58191 12.3538Z" fill="#9A9DA6"/>
<path d="M6.00684 12.7415C6.23338 12.7415 6.41699 12.5579 6.41699 12.3313V4.93762C6.41699 4.71107 6.23338 4.52747 6.00684 4.52747C5.78029 4.52747 5.59668 4.71107 5.59668 4.93762V12.3313C5.59668 12.5579 5.78029 12.7415 6.00684 12.7415Z" fill="#9A9DA6"/>
</svg>
