<svg width="25" height="25" viewBox="0 0 25 25" fill="none" xmlns="http://www.w3.org/2000/svg">
<g opacity="0.5">
<path d="M12.5798 0C19.4396 0 25 5.56109 25 12.4201C25 19.2799 19.4396 24.8402 12.5798 24.8402C5.72003 24.8402 0.15979 19.2799 0.15979 12.4201C0.15979 5.56109 5.72012 0 12.5798 0Z" fill="#26A6D1"/>
<path d="M20.3448 8.36728C19.8022 8.60168 19.2184 8.75925 18.606 8.83071C19.2317 8.46661 19.7114 7.8914 19.9373 7.20448C19.352 7.54214 18.7046 7.78669 18.0145 7.91783C17.4625 7.3473 16.6762 6.99097 15.8053 6.99097C14.1348 6.99097 12.7794 8.3052 12.7794 9.92751C12.7794 10.1581 12.8059 10.3824 12.8578 10.5975C10.3427 10.4748 8.1118 9.30497 6.61986 7.52816C6.35903 7.96208 6.20998 8.46585 6.20998 9.00457C6.20998 10.023 6.74401 10.9234 7.55602 11.449C7.05925 11.4335 6.59343 11.3023 6.1844 11.0811V11.1184C6.1844 12.542 7.22765 13.7289 8.61249 13.9991C8.35865 14.0658 8.09159 14.1023 7.81523 14.1023C7.6204 14.1023 7.43102 14.0845 7.24624 14.0495C7.63122 15.217 8.74909 16.0662 10.0742 16.0896C9.03789 16.8782 7.73295 17.3471 6.31477 17.3471C6.07022 17.3471 5.8296 17.3331 5.59204 17.306C6.93262 18.1397 8.52245 18.6264 10.2325 18.6264C15.7998 18.6264 18.8443 14.149 18.8443 10.2676L18.8358 9.88726C19.4257 9.47423 19.9388 8.95725 20.3448 8.36728Z" fill="white"/>
</g>
</svg>
