<svg width="41" height="33" viewBox="0 0 41 33" fill="none" xmlns="http://www.w3.org/2000/svg">
<path d="M20.5356 10.579L12.6924 18.4051L14.9382 20.6509L18.0857 17.4864L18.8342 15.5979V32.5432H22.2369V15.615L22.9345 17.4694L26.1329 20.6509L28.3617 18.4222L20.5356 10.579Z" fill="#3D404F"/>
<path d="M31.5941 8.77567H31.424C29.5951 3.80707 24.8775 0.492811 19.5831 0.457083C12.5643 0.409711 6.83598 6.06121 6.78869 13.08C6.78869 13.3522 6.78869 13.6074 6.78869 13.8797C3.00198 13.9172 -0.0372179 17.0175 0.000344464 20.8042C0.0379068 24.5909 3.13812 27.6301 6.92482 27.5925H15.4315V24.1898H6.92474C5.02198 24.1898 3.47953 22.6473 3.47953 20.7446C3.47953 18.8418 5.02198 17.2994 6.92474 17.2994L10.3274 17.3845C10.3274 17.3845 10.1743 13.8797 10.1743 13.0801C10.1369 8.69608 13.1698 4.88274 17.4499 3.93244C22.4583 2.8204 27.4198 5.97907 28.5318 10.9875L28.9061 12.5867L30.5053 12.2974C30.8638 12.2244 31.2283 12.1845 31.5941 12.1784C34.911 12.1784 37.5999 14.8672 37.5999 18.1841C37.5999 21.501 34.911 24.1899 31.5941 24.1899H25.6394V27.5926H31.5941C36.7882 27.5911 40.9984 23.3809 40.9999 18.1868C41.0014 12.9905 36.7903 8.77711 31.5941 8.77567Z" fill="#3D404F"/>
</svg>
