<svg width="26" height="30" viewBox="0 0 26 30" fill="none" xmlns="http://www.w3.org/2000/svg">
<path d="M12.7862 14.4511C14.7715 14.4511 16.4907 13.739 17.8953 12.3342C19.3 10.9295 20.012 9.21086 20.012 7.22531C20.012 5.24046 19.3 3.52156 17.8951 2.11646C16.4902 0.712049 14.7713 0 12.7862 0C10.8007 0 9.082 0.712049 7.67735 2.11669C6.27271 3.52133 5.56042 5.24023 5.56042 7.22531C5.56042 9.21086 6.27271 10.9298 7.67758 12.3344C9.08246 13.7388 10.8014 14.4511 12.7862 14.4511V14.4511Z" fill="#3D404F"/>
<path d="M25.4294 23.0684C25.3889 22.4838 25.307 21.8462 25.1864 21.1728C25.0646 20.4944 24.9078 19.8531 24.7201 19.2669C24.5263 18.6611 24.2626 18.0628 23.9367 17.4894C23.5984 16.8943 23.201 16.3762 22.7552 15.9497C22.2889 15.5037 21.7181 15.145 21.058 14.8834C20.4002 14.6232 19.6712 14.4913 18.8914 14.4913C18.5852 14.4913 18.289 14.617 17.717 14.9894C17.365 15.2189 16.9532 15.4844 16.4937 15.7781C16.1007 16.0285 15.5683 16.2631 14.9107 16.4755C14.2691 16.6831 13.6178 16.7884 12.9748 16.7884C12.3319 16.7884 11.6807 16.6831 11.0385 16.4755C10.3816 16.2633 9.84921 16.0287 9.45668 15.7783C9.00143 15.4874 8.58945 15.2219 8.23216 14.9891C7.66087 14.6167 7.36447 14.4911 7.05823 14.4911C6.2782 14.4911 5.54944 14.6232 4.89186 14.8836C4.23222 15.1448 3.66116 15.5034 3.19447 15.95C2.74884 16.3766 2.35127 16.8946 2.01344 17.4894C1.68774 18.0628 1.42407 18.6608 1.22998 19.2671C1.04253 19.8533 0.885742 20.4944 0.763977 21.1728C0.643356 21.8453 0.561417 22.4832 0.520905 23.0691C0.481079 23.6431 0.460938 24.2389 0.460938 24.8406C0.460938 26.4066 0.958755 27.6744 1.94043 28.6094C2.90997 29.532 4.19286 30.0001 5.75291 30.0001H20.1981C21.7582 30.0001 23.0406 29.5322 24.0104 28.6094C24.9923 27.6751 25.4901 26.4071 25.4901 24.8404C25.4899 24.2359 25.4695 23.6397 25.4294 23.0684V23.0684Z" fill="#3D404F"/>
</svg>
