<svg width="10" height="13" viewBox="0 0 10 13" fill="none" xmlns="http://www.w3.org/2000/svg">
<path d="M9.74689 5.39587H8.98647V4.38198C8.98647 2.42526 7.39461 0.833374 5.43787 0.833374C3.48112 0.833374 1.88926 2.42526 1.88926 4.38198V5.39587H1.12885C0.98874 5.39587 0.875366 5.50925 0.875366 5.64935V11.9862C0.875366 12.5453 1.33007 13 1.88926 13H8.98649C9.54566 13 10.0004 12.5453 10.0004 11.9861V5.64935C10.0004 5.50925 9.88699 5.39587 9.74689 5.39587ZM6.19681 10.6908C6.20472 10.7623 6.18172 10.8341 6.1337 10.8879C6.08567 10.9416 6.01685 10.9723 5.94483 10.9723H4.93093C4.8589 10.9723 4.79009 10.9416 4.74206 10.8879C4.69404 10.8342 4.67101 10.7624 4.67895 10.6908L4.83885 9.25292C4.57919 9.06405 4.42399 8.76528 4.42399 8.43754C4.42399 7.87837 4.8787 7.42364 5.43789 7.42364C5.99708 7.42364 6.45179 7.87835 6.45179 8.43754C6.45179 8.76528 6.29659 9.06405 6.03693 9.25292L6.19681 10.6908ZM7.46564 5.39587H3.4101V4.38198C3.4101 3.26388 4.31977 2.35421 5.43787 2.35421C6.55596 2.35421 7.46564 3.26388 7.46564 4.38198V5.39587Z" fill="white"/>
</svg>
