<?xml version="1.0" encoding="utf-8"?>
<!-- Generator: Adobe Illustrator 16.0.0, SVG Export Plug-In . SVG Version: 6.00 Build 0)  -->
<!DOCTYPE svg PUBLIC "-//W3C//DTD SVG 1.1//EN" "http://www.w3.org/Graphics/SVG/1.1/DTD/svg11.dtd">
<svg version="1.1" id="Layer_1" xmlns="http://www.w3.org/2000/svg" xmlns:xlink="http://www.w3.org/1999/xlink" x="0px" y="0px"
	 width="837.521px" height="190.237px" viewBox="0 0 837.521 190.237" enable-background="new 0 0 837.521 190.237"
	 xml:space="preserve">
<g>
	<path d="M28.645,31.026h59.167c14.573,0,26.042,4.005,33.326,11.289c5.827,5.827,8.736,12.926,8.736,21.667v0.366
		c0,14.382-7.645,22.392-16.75,27.488c14.748,5.647,23.854,14.208,23.854,31.323v0.36c0,23.309-18.938,34.958-47.703,34.958H28.645
		V31.026z M81.81,82.549c12.38,0,20.209-4,20.209-13.466v-0.371c0-8.37-6.558-13.106-18.393-13.106H55.953v26.943H81.81z
		 M89.273,133.897c12.38,0,19.844-4.365,19.844-13.837v-0.366c0-8.555-6.373-13.837-20.755-13.837h-32.41v28.04H89.273z"/>
	<path d="M158.473,31.026h96.137v24.945h-68.278v25.856h60.083v24.946h-60.083v26.763h69.189v24.94h-97.048V31.026z"/>
	<g>
		<polygon fill="#F67C07" points="275.991,31.026 334.618,117.176 350.212,94.269 307.179,31.026 		"/>
		<polygon points="362.056,31.026 345.441,55.446 361.03,78.359 393.239,31.026 		"/>
		<polygon fill="#F67C07" points="306.508,158.477 350.227,94.229 334.638,71.315 275.325,158.477 		"/>
		<polygon points="393.91,158.477 361.01,110.133 345.416,133.046 362.722,158.477 		"/>
	</g>
	<path d="M541.84,31.026h58.261c16.205,0,28.771,4.556,37.146,12.931c7.099,7.099,10.924,17.116,10.924,29.131v0.365
		c0,20.57-11.108,33.496-27.309,39.503l31.133,45.521H619.22l-27.309-40.78h-22.032v40.78H541.84V31.026z M598.285,92.932
		c13.651,0,21.48-7.284,21.48-18.027v-0.36c0-12.02-8.375-18.207-22.026-18.207h-27.859v36.594H598.285z"/>
	<path d="M453.523,56.883H414.74V31.026h105.599v25.856h-38.777v101.594h-28.039V56.883z"/>
	<polygon points="753.583,31.026 727.727,31.026 673.496,158.477 702.066,158.477 740.292,64.712 778.519,158.477 807.82,158.477 	
		"/>
	<polygon fill="#F67C07" points="721.445,158.487 759.166,158.487 740.292,112.075 	"/>
</g>
</svg>
